<svg width="283" height="240" viewBox="0 0 283 240" fill="none" xmlns="http://www.w3.org/2000/svg">
<path d="M0.895874 111.086H43.4525" stroke="#4D4D4D" stroke-width="0.9725" stroke-miterlimit="10"/>
<path d="M22.1742 89.8076V132.364" stroke="#4D4D4D" stroke-width="0.9725" stroke-miterlimit="10"/>
<path d="M22.1742 132.364C22.1742 132.364 29.2734 122.97 29.2734 111.086C29.2734 99.202 22.1742 89.8076 22.1742 89.8076" stroke="#4D4D4D" stroke-width="0.9725" stroke-miterlimit="10"/>
<path d="M22.1742 132.364C33.9259 132.364 43.4525 122.838 43.4525 111.086C43.4525 99.3345 33.9259 89.8079 22.1742 89.8079C10.4225 89.8079 0.895905 99.3345 0.895905 111.086C0.895905 122.838 10.4225 132.364 22.1742 132.364Z" stroke="#4D4D4D" stroke-width="0.9725" stroke-miterlimit="10"/>
<path d="M22.1742 132.364C22.1742 132.364 36.3532 127.618 36.3532 111.086C36.3532 94.5534 22.1742 89.8076 22.1742 89.8076" stroke="#4D4D4D" stroke-width="0.9725" stroke-miterlimit="10"/>
<path d="M22.1742 132.364C22.1742 132.364 15.0749 122.97 15.0749 111.086C15.0749 99.202 22.1742 89.8076 22.1742 89.8076" stroke="#4D4D4D" stroke-width="0.9725" stroke-miterlimit="10"/>
<path d="M22.1742 132.364C22.1742 132.364 7.99512 127.618 7.99512 111.086C7.99512 94.5534 22.1742 89.8076 22.1742 89.8076" stroke="#4D4D4D" stroke-width="0.9725" stroke-miterlimit="10"/>
<path d="M3.1521 120.617C5.42775 119.644 11.5156 117.563 22.1742 117.563C32.8522 117.563 38.9206 119.644 41.1963 120.617" stroke="#4D4D4D" stroke-width="0.9725" stroke-miterlimit="10"/>
<path d="M8.17024 127.094C10.3875 126.044 14.7443 124.643 22.1742 124.643C29.5458 124.643 33.9026 126.024 36.1199 127.075" stroke="#4D4D4D" stroke-width="0.9725" stroke-miterlimit="10"/>
<path d="M3.1521 101.555C5.42775 102.528 11.5156 104.609 22.1742 104.609C32.8522 104.609 38.9206 102.528 41.1963 101.555" stroke="#4D4D4D" stroke-width="0.9725" stroke-miterlimit="10"/>
<path d="M8.17016 95.0786C10.3875 96.1289 14.7443 97.5293 22.1742 97.5293C29.5457 97.5293 33.9025 96.1484 36.1198 95.0981" stroke="#4D4D4D" stroke-width="0.9725" stroke-miterlimit="10"/>
<path d="M35.8088 50.6754H245.519V205.984C245.519 209.212 242.912 211.819 239.684 211.819H41.6438C38.4151 211.819 35.8088 209.212 35.8088 205.984V50.6754Z" fill="white" stroke="#4D4D4D" stroke-width="0.9725" stroke-miterlimit="10"/>
<path d="M41.6437 28.4438H239.684C242.912 28.4438 245.519 31.0501 245.519 34.2788V50.6947H35.8087V34.2788C35.8087 31.0501 38.415 28.4438 41.6437 28.4438Z" fill="white" stroke="#4D4D4D" stroke-width="0.9725" stroke-miterlimit="10"/>
<path d="M49.171 43.09C51.1153 43.09 52.6915 41.5138 52.6915 39.5695C52.6915 37.6252 51.1153 36.0491 49.171 36.0491C47.2267 36.0491 45.6506 37.6252 45.6506 39.5695C45.6506 41.5138 47.2267 43.09 49.171 43.09Z" fill="#4D4D4D"/>
<path d="M61.3273 43.09C63.2715 43.09 64.8477 41.5138 64.8477 39.5695C64.8477 37.6252 63.2715 36.0491 61.3273 36.0491C59.383 36.0491 57.8068 37.6252 57.8068 39.5695C57.8068 41.5138 59.383 43.09 61.3273 43.09Z" fill="#4D4D4D"/>
<path d="M73.464 43.09C75.4083 43.09 76.9845 41.5138 76.9845 39.5695C76.9845 37.6252 75.4083 36.0491 73.464 36.0491C71.5198 36.0491 69.9436 37.6252 69.9436 39.5695C69.9436 41.5138 71.5198 43.09 73.464 43.09Z" fill="#4D4D4D"/>
<path d="M122.595 102.665H111.1C110.03 102.665 109.155 101.79 109.155 100.72V89.225C109.155 88.1553 110.03 87.28 111.1 87.28H122.595C123.664 87.28 124.54 88.1553 124.54 89.225V100.72C124.54 101.809 123.684 102.665 122.595 102.665Z" fill="white" stroke="#4D4D4D" stroke-width="0.9725" stroke-miterlimit="10"/>
<path d="M146.401 102.665H134.906C133.837 102.665 132.961 101.79 132.961 100.72V89.225C132.961 88.1553 133.837 87.28 134.906 87.28H146.401C147.471 87.28 148.346 88.1553 148.346 89.225V100.72C148.346 101.809 147.471 102.665 146.401 102.665Z" fill="#4D4D4D" stroke="#4D4D4D" stroke-width="0.9725" stroke-miterlimit="10"/>
<path d="M170.208 102.665H158.713C157.643 102.665 156.768 101.79 156.768 100.72V89.225C156.768 88.1553 157.643 87.28 158.713 87.28H170.208C171.278 87.28 172.153 88.1553 172.153 89.225V100.72C172.153 101.809 171.278 102.665 170.208 102.665Z" fill="white" stroke="#4D4D4D" stroke-width="0.9725" stroke-miterlimit="10"/>
<path d="M193.996 102.665H182.501C181.431 102.665 180.556 101.79 180.556 100.72V89.225C180.556 88.1553 181.431 87.28 182.501 87.28H193.996C195.065 87.28 195.941 88.1553 195.941 89.225V100.72C195.941 101.809 195.085 102.665 193.996 102.665Z" fill="white" stroke="#4D4D4D" stroke-width="0.9725" stroke-miterlimit="10"/>
<path d="M217.802 102.665H206.307C205.238 102.665 204.362 101.79 204.362 100.72V89.225C204.362 88.1553 205.238 87.28 206.307 87.28H217.802C218.872 87.28 219.747 88.1553 219.747 89.225V100.72C219.747 101.809 218.872 102.665 217.802 102.665Z" fill="white" stroke="#4D4D4D" stroke-width="0.9725" stroke-miterlimit="10"/>
<path d="M75.0004 126.472H63.5055C62.4357 126.472 61.5605 125.597 61.5605 124.527V113.032C61.5605 111.962 62.4357 111.087 63.5055 111.087H75.0004C76.0702 111.087 76.9454 111.962 76.9454 113.032V124.527C76.9454 125.597 76.0702 126.472 75.0004 126.472Z" fill="white" stroke="#4D4D4D" stroke-width="0.9725" stroke-miterlimit="10"/>
<path d="M98.8073 126.472H87.3123C86.2426 126.472 85.3673 125.597 85.3673 124.527V113.032C85.3673 111.962 86.2426 111.087 87.3123 111.087H98.8073C99.877 111.087 100.752 111.962 100.752 113.032V124.527C100.752 125.597 99.877 126.472 98.8073 126.472Z" fill="white" stroke="#4D4D4D" stroke-width="0.9725" stroke-miterlimit="10"/>
<path d="M69.2627 78.8778C65.0226 78.8778 61.5605 75.4351 61.5605 71.1756C61.5605 66.9355 65.0031 63.4734 69.2627 63.4734C73.5028 63.4734 76.9649 66.916 76.9649 71.1756C76.9454 75.4351 73.5028 78.8778 69.2627 78.8778Z" fill="white" stroke="#4D4D4D" stroke-width="0.9725" stroke-miterlimit="10"/>
<path d="M122.595 126.472H111.1C110.03 126.472 109.155 125.597 109.155 124.527V113.032C109.155 111.962 110.03 111.087 111.1 111.087H122.595C123.664 111.087 124.54 111.962 124.54 113.032V124.527C124.54 125.597 123.684 126.472 122.595 126.472Z" fill="#4D4D4D" stroke="#4D4D4D" stroke-width="0.9725" stroke-miterlimit="10"/>
<path d="M146.401 126.472H134.906C133.837 126.472 132.961 125.597 132.961 124.527V113.032C132.961 111.962 133.837 111.087 134.906 111.087H146.401C147.471 111.087 148.346 111.962 148.346 113.032V124.527C148.346 125.597 147.471 126.472 146.401 126.472Z" fill="white" stroke="#4D4D4D" stroke-width="0.9725" stroke-miterlimit="10"/>
<path d="M170.208 126.472H158.713C157.643 126.472 156.768 125.597 156.768 124.527V113.032C156.768 111.962 157.643 111.087 158.713 111.087H170.208C171.278 111.087 172.153 111.962 172.153 113.032V124.527C172.153 125.597 171.278 126.472 170.208 126.472Z" fill="white" stroke="#4D4D4D" stroke-width="0.9725" stroke-miterlimit="10"/>
<path d="M160.133 78.8779H101.044C99.9742 78.8779 99.099 78.0026 99.099 76.9329V65.4379C99.099 64.3682 99.9742 63.4929 101.044 63.4929H160.133C161.203 63.4929 162.078 64.3682 162.078 65.4379V76.9329C162.078 78.0026 161.222 78.8779 160.133 78.8779Z" fill="#4D4D4D" stroke="#4D4D4D" stroke-width="0.9725" stroke-miterlimit="10"/>
<path d="M226.516 78.8779H167.427C166.357 78.8779 165.482 78.0026 165.482 76.9329V65.4379C165.482 64.3682 166.357 63.4929 167.427 63.4929H226.516C227.586 63.4929 228.461 64.3682 228.461 65.4379V76.9329C228.461 78.0026 227.586 78.8779 226.516 78.8779Z" fill="white" stroke="#4D4D4D" stroke-width="0.9725" stroke-miterlimit="10"/>
<path d="M245.519 78.8779H233.79C232.72 78.8779 231.845 78.0026 231.845 76.9329V65.4379C231.845 64.3682 232.72 63.4929 233.79 63.4929H245.519" stroke="#4D4D4D" stroke-width="0.9725" stroke-miterlimit="10"/>
<path d="M193.996 126.472H182.501C181.431 126.472 180.556 125.597 180.556 124.527V113.032C180.556 111.962 181.431 111.087 182.501 111.087H193.996C195.065 111.087 195.941 111.962 195.941 113.032V124.527C195.941 125.597 195.085 126.472 193.996 126.472Z" fill="#4D4D4D" stroke="#4D4D4D" stroke-width="0.9725" stroke-miterlimit="10"/>
<path d="M217.802 126.472H206.307C205.238 126.472 204.362 125.597 204.362 124.527V113.032C204.362 111.962 205.238 111.087 206.307 111.087H217.802C218.872 111.087 219.747 111.962 219.747 113.032V124.527C219.747 125.597 218.872 126.472 217.802 126.472Z" fill="white" stroke="#4D4D4D" stroke-width="0.9725" stroke-miterlimit="10"/>
<path d="M75.0004 150.279H63.5055C62.4357 150.279 61.5605 149.403 61.5605 148.334V136.839C61.5605 135.769 62.4357 134.894 63.5055 134.894H75.0004C76.0702 134.894 76.9454 135.769 76.9454 136.839V148.334C76.9454 149.403 76.0702 150.279 75.0004 150.279Z" fill="#4D4D4D" stroke="#4D4D4D" stroke-width="0.9725" stroke-miterlimit="10"/>
<path d="M98.8073 150.279H87.3123C86.2426 150.279 85.3673 149.403 85.3673 148.334V136.839C85.3673 135.769 86.2426 134.894 87.3123 134.894H98.8073C99.877 134.894 100.752 135.769 100.752 136.839V148.334C100.752 149.403 99.877 150.279 98.8073 150.279Z" fill="white" stroke="#4D4D4D" stroke-width="0.9725" stroke-miterlimit="10"/>
<path d="M122.595 150.279H111.1C110.03 150.279 109.155 149.403 109.155 148.334V136.839C109.155 135.769 110.03 134.894 111.1 134.894H122.595C123.664 134.894 124.54 135.769 124.54 136.839V148.334C124.54 149.403 123.684 150.279 122.595 150.279Z" fill="white" stroke="#4D4D4D" stroke-width="0.9725" stroke-miterlimit="10"/>
<path d="M146.401 150.279H134.906C133.837 150.279 132.961 149.403 132.961 148.334V136.839C132.961 135.769 133.837 134.894 134.906 134.894H146.401C147.471 134.894 148.346 135.769 148.346 136.839V148.334C148.346 149.403 147.471 150.279 146.401 150.279Z" fill="#4D4D4D" stroke="#4D4D4D" stroke-width="0.9725" stroke-miterlimit="10"/>
<path d="M170.208 150.279H158.713C157.643 150.279 156.768 149.403 156.768 148.334V136.839C156.768 135.769 157.643 134.894 158.713 134.894H170.208C171.278 134.894 172.153 135.769 172.153 136.839V148.334C172.153 149.403 171.278 150.279 170.208 150.279Z" fill="white" stroke="#4D4D4D" stroke-width="0.9725" stroke-miterlimit="10"/>
<path d="M193.996 150.279H182.501C181.431 150.279 180.556 149.403 180.556 148.334V136.839C180.556 135.769 181.431 134.894 182.501 134.894H193.996C195.065 134.894 195.941 135.769 195.941 136.839V148.334C195.941 149.403 195.085 150.279 193.996 150.279Z" fill="white" stroke="#4D4D4D" stroke-width="0.9725" stroke-miterlimit="10"/>
<path d="M217.802 150.279H206.307C205.238 150.279 204.362 149.403 204.362 148.334V136.839C204.362 135.769 205.238 134.894 206.307 134.894H217.802C218.872 134.894 219.747 135.769 219.747 136.839V148.334C219.747 149.403 218.872 150.279 217.802 150.279Z" fill="white" stroke="#4D4D4D" stroke-width="0.9725" stroke-miterlimit="10"/>
<path d="M75.0004 174.066H63.5055C62.4357 174.066 61.5605 173.191 61.5605 172.121V160.626C61.5605 159.556 62.4357 158.681 63.5055 158.681H75.0004C76.0702 158.681 76.9454 159.556 76.9454 160.626V172.121C76.9454 173.21 76.0702 174.066 75.0004 174.066Z" fill="white" stroke="#4D4D4D" stroke-width="0.9725" stroke-miterlimit="10"/>
<path d="M98.8073 174.066H87.3123C86.2426 174.066 85.3673 173.191 85.3673 172.121V160.626C85.3673 159.556 86.2426 158.681 87.3123 158.681H98.8073C99.877 158.681 100.752 159.556 100.752 160.626V172.121C100.752 173.21 99.877 174.066 98.8073 174.066Z" fill="white" stroke="#4D4D4D" stroke-width="0.9725" stroke-miterlimit="10"/>
<path d="M122.595 174.066H111.1C110.03 174.066 109.155 173.191 109.155 172.121V160.626C109.155 159.556 110.03 158.681 111.1 158.681H122.595C123.664 158.681 124.54 159.556 124.54 160.626V172.121C124.54 173.21 123.684 174.066 122.595 174.066Z" fill="#4D4D4D" stroke="#4D4D4D" stroke-width="0.9725" stroke-miterlimit="10"/>
<path d="M146.401 174.066H134.906C133.837 174.066 132.961 173.191 132.961 172.121V160.626C132.961 159.556 133.837 158.681 134.906 158.681H146.401C147.471 158.681 148.346 159.556 148.346 160.626V172.121C148.346 173.21 147.471 174.066 146.401 174.066Z" fill="white" stroke="#4D4D4D" stroke-width="0.9725" stroke-miterlimit="10"/>
<path d="M170.208 174.066H158.713C157.643 174.066 156.768 173.191 156.768 172.121V160.626C156.768 159.556 157.643 158.681 158.713 158.681H170.208C171.278 158.681 172.153 159.556 172.153 160.626V172.121C172.153 173.21 171.278 174.066 170.208 174.066Z" fill="white" stroke="#4D4D4D" stroke-width="0.9725" stroke-miterlimit="10"/>
<path d="M193.996 174.066H182.501C181.431 174.066 180.556 173.191 180.556 172.121V160.626C180.556 159.556 181.431 158.681 182.501 158.681H193.996C195.065 158.681 195.941 159.556 195.941 160.626V172.121C195.941 173.21 195.085 174.066 193.996 174.066Z" fill="#4D4D4D" stroke="#4D4D4D" stroke-width="0.9725" stroke-miterlimit="10"/>
<path d="M217.802 174.066H206.307C205.238 174.066 204.362 173.191 204.362 172.121V160.626C204.362 159.556 205.238 158.681 206.307 158.681H217.802C218.872 158.681 219.747 159.556 219.747 160.626V172.121C219.747 173.21 218.872 174.066 217.802 174.066Z" fill="white" stroke="#4D4D4D" stroke-width="0.9725" stroke-miterlimit="10"/>
<path d="M75.0004 197.873H63.5055C62.4357 197.873 61.5605 196.997 61.5605 195.928V184.433C61.5605 183.363 62.4357 182.488 63.5055 182.488H75.0004C76.0702 182.488 76.9454 183.363 76.9454 184.433V195.928C76.9454 196.997 76.0702 197.873 75.0004 197.873Z" fill="white" stroke="#4D4D4D" stroke-width="0.9725" stroke-miterlimit="10"/>
<path d="M98.8073 197.873H87.3123C86.2426 197.873 85.3673 196.997 85.3673 195.928V184.433C85.3673 183.363 86.2426 182.488 87.3123 182.488H98.8073C99.877 182.488 100.752 183.363 100.752 184.433V195.928C100.752 196.997 99.877 197.873 98.8073 197.873Z" fill="#4D4D4D" stroke="#4D4D4D" stroke-width="0.9725" stroke-miterlimit="10"/>
<path d="M122.595 197.873H111.1C110.03 197.873 109.155 196.997 109.155 195.928V184.433C109.155 183.363 110.03 182.488 111.1 182.488H122.595C123.664 182.488 124.54 183.363 124.54 184.433V195.928C124.54 196.997 123.684 197.873 122.595 197.873Z" fill="white" stroke="#4D4D4D" stroke-width="0.9725" stroke-miterlimit="10"/>
<path d="M146.401 197.873H134.906C133.837 197.873 132.961 196.997 132.961 195.928V184.433C132.961 183.363 133.837 182.488 134.906 182.488H146.401C147.471 182.488 148.346 183.363 148.346 184.433V195.928C148.346 196.997 147.471 197.873 146.401 197.873Z" fill="white" stroke="#4D4D4D" stroke-width="0.9725" stroke-miterlimit="10"/>
<path d="M170.208 197.873H158.713C157.643 197.873 156.768 196.997 156.768 195.928V184.433C156.768 183.363 157.643 182.488 158.713 182.488H170.208C171.278 182.488 172.153 183.363 172.153 184.433V195.928C172.153 196.997 171.278 197.873 170.208 197.873Z" fill="#4D4D4D" stroke="#4D4D4D" stroke-width="0.9725" stroke-miterlimit="10"/>
<path d="M70.2352 74.1709L67.2593 71.1756L70.2352 68.1997" stroke="#4D4D4D" stroke-width="0.9725" stroke-miterlimit="10"/>
<path d="M88.0319 63.4929C92.272 63.4929 95.7341 66.9356 95.7341 71.1951C95.7341 75.4352 92.2915 78.8973 88.0319 78.8973C83.7918 78.8973 80.3297 75.4547 80.3297 71.1951C80.3297 66.9356 83.7724 63.4929 88.0319 63.4929Z" fill="white" stroke="#4D4D4D" stroke-width="0.9725" stroke-miterlimit="10"/>
<path d="M87.0399 68.1997L90.0352 71.1756L87.0399 74.1709" stroke="#4D4D4D" stroke-width="0.9725" stroke-miterlimit="10"/>
<path d="M188.258 1L190.981 11.8725L198.78 3.82025L195.688 14.5955L206.482 11.5224L198.411 19.3219L209.283 22.0449L198.411 24.7679L206.482 32.5479L195.688 29.4748L198.78 40.2501L190.981 32.1978L188.258 43.0703L185.535 32.1978L177.735 40.2501L180.808 29.4748L170.033 32.5479L178.085 24.7679L167.213 22.0449L178.085 19.3219L170.033 11.5224L180.808 14.5955L177.735 3.82025L185.535 11.8725L188.258 1Z" fill="white" stroke="#4D4D4D" stroke-width="0.9725" stroke-miterlimit="10" stroke-linejoin="round"/>
<path d="M116.857 106.866C117.62 106.866 118.238 106.248 118.238 105.485C118.238 104.723 117.62 104.104 116.857 104.104C116.094 104.104 115.476 104.723 115.476 105.485C115.476 106.248 116.094 106.866 116.857 106.866Z" fill="#4D4D4D"/>
<path d="M188.258 106.866C189.02 106.866 189.639 106.248 189.639 105.485C189.639 104.723 189.02 104.104 188.258 104.104C187.495 104.104 186.877 104.723 186.877 105.485C186.877 106.248 187.495 106.866 188.258 106.866Z" fill="#4D4D4D"/>
<path d="M140.664 130.479C141.426 130.479 142.045 129.86 142.045 129.098C142.045 128.335 141.426 127.717 140.664 127.717C139.901 127.717 139.283 128.335 139.283 129.098C139.283 129.86 139.901 130.479 140.664 130.479Z" fill="#4D4D4D"/>
<path d="M212.065 130.479C212.827 130.479 213.446 129.86 213.446 129.098C213.446 128.335 212.827 127.717 212.065 127.717C211.302 127.717 210.684 128.335 210.684 129.098C210.684 129.86 211.302 130.479 212.065 130.479Z" fill="#4D4D4D"/>
<path d="M93.0501 154.305C93.8128 154.305 94.431 153.687 94.431 152.924C94.431 152.161 93.8128 151.543 93.0501 151.543C92.2874 151.543 91.6691 152.161 91.6691 152.924C91.6691 153.687 92.2874 154.305 93.0501 154.305Z" fill="#4D4D4D"/>
<path d="M188.258 154.305C189.02 154.305 189.639 153.687 189.639 152.924C189.639 152.161 189.02 151.543 188.258 151.543C187.495 151.543 186.877 152.161 186.877 152.924C186.877 153.687 187.495 154.305 188.258 154.305Z" fill="#4D4D4D"/>
<path d="M69.2627 178.112C70.0254 178.112 70.6437 177.493 70.6437 176.731C70.6437 175.968 70.0254 175.35 69.2627 175.35C68.5 175.35 67.8818 175.968 67.8818 176.731C67.8818 177.493 68.5 178.112 69.2627 178.112Z" fill="#4D4D4D"/>
<path d="M116.857 201.899C117.62 201.899 118.238 201.281 118.238 200.518C118.238 199.755 117.62 199.137 116.857 199.137C116.094 199.137 115.476 199.755 115.476 200.518C115.476 201.281 116.094 201.899 116.857 201.899Z" fill="#4D4D4D"/>
<path d="M164.451 178.112C165.214 178.112 165.832 177.493 165.832 176.731C165.832 175.968 165.214 175.35 164.451 175.35C163.688 175.35 163.07 175.968 163.07 176.731C163.07 177.493 163.688 178.112 164.451 178.112Z" fill="#4D4D4D"/>
<path d="M206.482 198.67C205.568 196.161 208 193.73 210.489 194.664L230.075 201.86L249.545 209.018C252.073 209.951 252.326 213.413 249.973 214.697L234.802 222.983L226.516 238.154C225.232 240.507 221.77 240.254 220.837 237.726L213.679 218.256L206.482 198.67Z" fill="#4D4D4D"/>
<path d="M268.548 230.646C276.024 230.646 282.085 224.586 282.085 217.109C282.085 209.633 276.024 203.572 268.548 203.572C261.071 203.572 255.01 209.633 255.01 217.109C255.01 224.586 261.071 230.646 268.548 230.646Z" fill="white" stroke="#4D4D4D" stroke-width="0.9725" stroke-miterlimit="10"/>
<path d="M272.729 225.745C269.17 227.476 264.735 226.854 261.779 223.897C258.823 220.941 258.2 216.526 259.931 212.947" stroke="#4D4D4D" stroke-width="0.9725" stroke-miterlimit="10"/>
<path d="M272.224 224.986C272.224 224.986 272.476 225.803 273.138 226.367" stroke="#4D4D4D" stroke-width="0.9725" stroke-miterlimit="10"/>
<path d="M260.631 213.394C260.631 213.394 259.814 213.141 259.25 212.48" stroke="#4D4D4D" stroke-width="0.9725" stroke-miterlimit="10"/>
<path d="M275.157 218.361C276.942 216.576 277.7 214.44 276.849 213.589C275.998 212.738 273.861 213.496 272.077 215.281C270.292 217.066 269.534 219.202 270.385 220.053C271.236 220.904 273.372 220.146 275.157 218.361Z" fill="#4D4D4D"/>
<path d="M270.373 213.577C272.158 211.792 272.915 209.655 272.064 208.804C271.213 207.953 269.077 208.711 267.292 210.496C265.507 212.281 264.75 214.417 265.6 215.268C266.451 216.119 268.588 215.361 270.373 213.577Z" fill="#4D4D4D"/>
<path d="M258.978 52.8342L260.067 55.6545L262.868 56.7437L260.067 57.8134L258.978 60.6337L257.889 57.8134L255.069 56.7437L257.889 55.6545L258.978 52.8342Z" fill="#4D4D4D"/>
<path d="M25.7142 215.903L26.8034 218.723L29.6236 219.813L26.8034 220.902L25.7142 223.722L24.625 220.902L21.8242 219.813L24.625 218.723L25.7142 215.903Z" fill="#4D4D4D"/>
<path d="M61.3271 6.73779L62.3969 9.55804L65.2171 10.6472L62.3969 11.7364L61.3271 14.5372L60.2379 11.7364L57.4177 10.6472L60.2379 9.55804L61.3271 6.73779Z" fill="#4D4D4D"/>
<path d="M273.624 143.724L274.713 146.544L277.533 147.634L274.713 148.703L273.624 151.524L272.535 148.723L269.734 147.634L272.535 146.544L273.624 143.724Z" fill="#4D4D4D"/>
<path d="M176.043 226.756L177.132 229.576L179.953 230.666L177.132 231.735L176.043 234.556L174.973 231.735L172.153 230.666L174.973 229.576L176.043 226.756Z" fill="#4D4D4D"/>
</svg>
