<svg width="24" height="20" viewBox="0 0 24 20" fill="none" xmlns="http://www.w3.org/2000/svg">
<g clip-path="url(#clip0_11_891)">
<path d="M13.5771 9.98334L15.9169 12.6578L19.0633 14.6682L19.6106 10.0002L19.0633 5.4375L15.8566 7.20366L13.5771 9.98334Z" fill="#00832D"/>
<path d="M0 14.2337V18.2115C0 19.1198 0.73725 19.8572 1.64569 19.8572H5.6235L6.44719 16.8517L5.6235 14.2337L2.89444 13.41L9.375e-05 14.2337H0Z" fill="#0066DA"/>
<path d="M5.6235 0.109375L0 5.73287L2.89462 6.55459L5.6235 5.73287L6.43219 3.15053L5.6235 0.109375Z" fill="#E94235"/>
<path d="M0 14.2355H5.62341V5.73279H0V14.2355Z" fill="#2684FC"/>
<path d="M22.6554 2.49047L19.063 5.4376V14.6682L22.6702 17.6268C23.2102 18.0498 24.0001 17.6643 24.0001 16.9778V3.12628C24.0001 2.43225 23.1914 2.04863 22.6553 2.49056" fill="#00AC47"/>
<path d="M13.5771 9.98328V14.2337H5.62354V19.8572H17.4177C18.3261 19.8572 19.0633 19.1198 19.0633 18.2115V14.6682L13.5771 9.98328Z" fill="#00AC47"/>
<path d="M17.4177 0.109375H5.62354V5.73287H13.5771V9.98331L19.0633 5.43738V1.75516C19.0633 0.846719 18.3261 0.109469 17.4177 0.109469" fill="#FFBA00"/>
</g>
<defs>
<clipPath id="clip0_11_891">
<rect width="24" height="19.7812" fill="white" transform="translate(0 0.109375)"/>
</clipPath>
</defs>
</svg>
