<svg width="24" height="24" viewBox="0 0 24 24" fill="none" xmlns="http://www.w3.org/2000/svg">
<g clip-path="url(#clip0_11_908)">
<path d="M16.7403 9.16895H22.9395C23.5253 9.16895 24 9.64379 24 10.2294V15.8761C24 18.0286 22.255 19.7737 20.1025 19.7737H20.0841C17.9316 19.7739 16.1863 18.0293 16.186 15.8767V9.72329C16.186 9.6505 16.2003 9.57841 16.2282 9.51116C16.256 9.4439 16.2969 9.38279 16.3483 9.33131C16.3998 9.27984 16.4609 9.239 16.5282 9.21114C16.5954 9.18328 16.6675 9.16895 16.7403 9.16895Z" fill="#5059C9"/>
<path d="M20.9301 8.05273C22.3173 8.05273 23.4418 6.92822 23.4418 5.54108C23.4418 4.15393 22.3173 3.02942 20.9301 3.02942C19.543 3.02942 18.4185 4.15393 18.4185 5.54108C18.4185 6.92822 19.543 8.05273 20.9301 8.05273Z" fill="#5059C9"/>
<path d="M13.1162 8.05275C15.1199 8.05275 16.7442 6.42847 16.7442 4.42481C16.7442 2.42116 15.1199 0.796875 13.1162 0.796875C11.1126 0.796875 9.48828 2.42116 9.48828 4.42481C9.48828 6.42847 11.1126 8.05275 13.1162 8.05275Z" fill="#7B83EB"/>
<path d="M17.9535 9.16895H7.72063C7.14191 9.18329 6.68413 9.66357 6.69754 10.2423V16.6826C6.61673 20.1555 9.36426 23.0375 12.837 23.1225C16.3098 23.0375 19.0574 20.1555 18.9766 16.6826V10.2423C18.99 9.66357 18.5323 9.18329 17.9535 9.16895Z" fill="#7B83EB"/>
<path opacity="0.1" d="M13.3953 9.16895V18.1941C13.394 18.3965 13.3329 18.594 13.2197 18.7618C13.1065 18.9297 12.9462 19.0603 12.7591 19.1374C12.6372 19.1889 12.5062 19.2155 12.3739 19.2155H7.18871C7.11615 19.0313 7.04921 18.847 6.99333 18.6574C6.79796 18.0169 6.69829 17.3511 6.69755 16.6815V10.2406C6.68415 9.66282 7.14118 9.18329 7.71896 9.16904H13.3952L13.3953 9.16895Z" fill="black"/>
<path opacity="0.2" d="M12.837 9.16895V18.7523C12.837 18.8845 12.8104 19.0155 12.7589 19.1374C12.6818 19.3246 12.5511 19.4848 12.3833 19.598C12.2155 19.7112 12.018 19.7723 11.8156 19.7737H7.45102C7.35615 19.5894 7.2668 19.4052 7.18871 19.2155C7.11369 19.0331 7.04847 18.8468 6.99333 18.6574C6.79796 18.0169 6.69829 17.3511 6.69755 16.6815V10.2406C6.68415 9.66282 7.14118 9.18329 7.71896 9.16904H12.8371L12.837 9.16895Z" fill="black"/>
<path opacity="0.2" d="M12.8371 9.16895V17.636C12.8328 18.1983 12.3781 18.6532 11.8156 18.6574H6.99333C6.79796 18.0169 6.69829 17.3511 6.69755 16.6815V10.2406C6.68415 9.66282 7.14118 9.18329 7.71896 9.16904L12.8371 9.16895Z" fill="black"/>
<path opacity="0.2" d="M12.279 9.16895V17.636C12.2746 18.1983 11.8199 18.6532 11.2576 18.6574H6.99333C6.79796 18.0169 6.69829 17.3511 6.69755 16.6815V10.2406C6.68415 9.66282 7.14118 9.18329 7.71896 9.16904L12.279 9.16895Z" fill="black"/>
<path opacity="0.1" d="M13.3954 6.28337V8.04146C13.3005 8.04709 13.2112 8.05271 13.1163 8.05271C13.0214 8.05271 12.9321 8.04709 12.8372 8.04146C12.6488 8.02898 12.462 7.9991 12.2791 7.95221C11.7219 7.82026 11.2039 7.55829 10.7673 7.18773C10.3308 6.81716 9.98815 6.34853 9.76746 5.82015C9.69044 5.64014 9.63065 5.45325 9.58887 5.26196H12.374C12.9371 5.26412 13.3932 5.72012 13.3954 6.28337Z" fill="black"/>
<path opacity="0.2" d="M12.8372 6.8415V8.0415C12.6488 8.02902 12.462 7.99914 12.2791 7.95225C11.722 7.82029 11.2039 7.55831 10.7674 7.18775C10.3309 6.81718 9.98826 6.34856 9.76758 5.82019H11.8158C12.3791 5.82225 12.8351 6.27835 12.8372 6.8415Z" fill="black"/>
<path opacity="0.2" d="M12.8372 6.8415V8.0415C12.6488 8.02902 12.462 7.99914 12.2791 7.95225C11.722 7.82029 11.2039 7.55831 10.7674 7.18775C10.3309 6.81718 9.98826 6.34856 9.76758 5.82019H11.8158C12.3791 5.82225 12.8351 6.27835 12.8372 6.8415Z" fill="black"/>
<path opacity="0.2" d="M12.2792 6.84147V7.95222C11.722 7.82026 11.204 7.55828 10.7674 7.1877C10.3309 6.81712 9.98826 6.34846 9.76758 5.82007H11.2578C11.8211 5.82222 12.2771 6.27832 12.2792 6.84147Z" fill="black"/>
<path d="M1.02309 5.82004H11.2559C11.821 5.82004 12.2791 6.2781 12.2791 6.84313V17.076C12.2791 17.6411 11.821 18.0991 11.256 18.0991H1.02309C0.458063 18.0991 0 17.6411 0 17.076V6.84323C0 6.27801 0.458063 5.82004 1.02309 5.82004Z" fill="url(#paint0_linear_11_908)"/>
<path d="M8.83217 9.71484H6.78655V15.2851H5.48333V9.71484H3.44727V8.63428H8.83217V9.71484Z" fill="white"/>
</g>
<defs>
<linearGradient id="paint0_linear_11_908" x1="213.312" y1="-74.1176" x2="1014.61" y2="1313.67" gradientUnits="userSpaceOnUse">
<stop stop-color="#5A62C3"/>
<stop offset="0.5" stop-color="#4D55BD"/>
<stop offset="1" stop-color="#3940AB"/>
</linearGradient>
<clipPath id="clip0_11_908">
<rect width="24" height="22.4062" fill="white" transform="translate(0 0.796875)"/>
</clipPath>
</defs>
</svg>
