<svg width="239" height="232" viewBox="0 0 239 232" fill="none" xmlns="http://www.w3.org/2000/svg">
<path d="M138.298 177.871H100.312C72.1871 177.871 49.3723 155.075 49.3723 126.931V88.9452C49.3723 60.8205 72.1677 38.0056 100.312 38.0056H138.298C166.422 38.0056 189.237 60.801 189.237 88.9452V126.931C189.237 155.056 166.422 177.871 138.298 177.871Z" fill="white" stroke="#808080" stroke-width="0.9725" stroke-miterlimit="10"/>
<path d="M56.1799 125.978V89.8985C56.1799 64.983 76.369 44.7939 101.284 44.7939H137.364C162.28 44.7939 182.469 64.983 182.469 89.8985V125.978C182.469 150.894 162.28 171.083 137.364 171.083H101.265C76.369 171.083 56.1799 150.894 56.1799 125.978Z" fill="white" stroke="#808080" stroke-width="0.9725" stroke-miterlimit="10"/>
<path d="M83.896 107.948H154.733" stroke="#808080" stroke-width="0.9725" stroke-miterlimit="10"/>
<path d="M119.314 72.5293V143.347" stroke="#808080" stroke-width="0.9725" stroke-miterlimit="10"/>
<path d="M119.314 143.347C119.314 143.347 131.121 127.689 131.121 107.928C131.121 88.167 119.314 72.5098 119.314 72.5098" stroke="#808080" stroke-width="0.9725" stroke-miterlimit="10"/>
<path d="M119.315 143.366C138.876 143.366 154.733 127.509 154.733 107.948C154.733 88.3869 138.876 72.5295 119.315 72.5295C99.7535 72.5295 83.8961 88.3869 83.8961 107.948C83.8961 127.509 99.7535 143.366 119.315 143.366Z" stroke="#808080" stroke-width="0.9725" stroke-miterlimit="10"/>
<path d="M119.314 143.347C119.314 143.347 142.927 135.45 142.927 107.928C142.927 80.4065 119.314 72.5098 119.314 72.5098" stroke="#808080" stroke-width="0.9725" stroke-miterlimit="10"/>
<path d="M119.314 143.347C119.314 143.347 107.508 127.689 107.508 107.928C107.508 88.167 119.314 72.5098 119.314 72.5098" stroke="#808080" stroke-width="0.9725" stroke-miterlimit="10"/>
<path d="M119.314 143.347C119.314 143.347 95.7022 135.45 95.7022 107.928C95.7022 80.4065 119.314 72.5098 119.314 72.5098" stroke="#808080" stroke-width="0.9725" stroke-miterlimit="10"/>
<path d="M87.6304 123.8C91.4037 122.166 101.537 118.723 119.295 118.723C137.053 118.723 147.186 122.166 150.96 123.8" stroke="#808080" stroke-width="0.9725" stroke-miterlimit="10"/>
<path d="M96.0133 134.594C99.6893 132.863 106.944 130.529 119.314 130.529C131.587 130.529 138.823 132.844 142.538 134.555" stroke="#808080" stroke-width="0.9725" stroke-miterlimit="10"/>
<path d="M87.6304 92.0767C91.4037 93.7105 101.537 97.1531 119.295 97.1531C137.053 97.1531 147.186 93.7105 150.96 92.0767" stroke="#808080" stroke-width="0.9725" stroke-miterlimit="10"/>
<path d="M96.0133 81.2817C99.6893 83.0128 106.944 85.3468 119.314 85.3468C131.587 85.3468 138.823 83.0322 142.538 81.3206" stroke="#808080" stroke-width="0.9725" stroke-miterlimit="10"/>
<path d="M194.761 47.5556C203.075 47.5556 209.815 40.8156 209.815 32.5013C209.815 24.1871 203.075 17.447 194.761 17.447C186.447 17.447 179.707 24.1871 179.707 32.5013C179.707 40.8156 186.447 47.5556 194.761 47.5556Z" fill="white" stroke="#808080" stroke-width="0.9725" stroke-miterlimit="10"/>
<path d="M194.761 32.5015C203.922 34.1936 201.783 45.8247 201.783 45.8247" stroke="#808080" stroke-width="0.9725" stroke-miterlimit="10"/>
<path d="M194.761 32.5014C200.81 25.4216 209.815 33.0849 209.815 33.0849" stroke="#808080" stroke-width="0.9725" stroke-miterlimit="10"/>
<path d="M194.761 32.5015C191.649 23.7101 202.794 19.7617 202.794 19.7617" stroke="#808080" stroke-width="0.9725" stroke-miterlimit="10"/>
<path d="M194.761 32.5015C185.6 30.8093 187.74 19.1782 187.74 19.1782" stroke="#808080" stroke-width="0.9725" stroke-miterlimit="10"/>
<path d="M194.761 32.5015C188.712 39.5813 179.707 31.918 179.707 31.918" stroke="#808080" stroke-width="0.9725" stroke-miterlimit="10"/>
<path d="M194.761 32.5015C197.873 41.2929 186.728 45.2412 186.728 45.2412" stroke="#808080" stroke-width="0.9725" stroke-miterlimit="10"/>
<path d="M14.3038 105.186L15.8793 109.251L19.9443 110.807L15.8793 112.382L14.3038 116.447L12.7478 112.382L8.66333 110.807L12.7478 109.251L14.3038 105.186Z" fill="#808080"/>
<path d="M224.286 132.513L225.842 136.578L229.927 138.153L225.842 139.709L224.286 143.794L222.711 139.709L218.646 138.153L222.711 136.578L224.286 132.513Z" fill="#808080"/>
<path d="M91.637 0L93.193 4.06505L97.2775 5.6405L93.193 7.1965L91.637 11.281L90.0615 7.21595L85.9965 5.6405L90.0615 4.06505L91.637 0Z" fill="#808080"/>
<path d="M0.999985 212.161H37.9939" stroke="#808080" stroke-width="0.9725" stroke-miterlimit="10"/>
<path d="M19.4969 193.644V230.658" stroke="#808080" stroke-width="0.9725" stroke-miterlimit="10"/>
<path d="M19.4969 230.657C19.4969 230.657 25.6626 222.469 25.6626 212.161C25.6626 201.852 19.4969 193.664 19.4969 193.664" stroke="#808080" stroke-width="0.9725" stroke-miterlimit="10"/>
<path d="M19.4969 230.657C29.7125 230.657 37.9939 222.376 37.9939 212.161C37.9939 201.945 29.7125 193.664 19.4969 193.664C9.28135 193.664 0.999985 201.945 0.999985 212.161C0.999985 222.376 9.28135 230.657 19.4969 230.657Z" stroke="#808080" stroke-width="0.9725" stroke-miterlimit="10"/>
<path d="M19.4969 230.657C19.4969 230.657 31.8282 226.534 31.8282 212.161C31.8282 197.787 19.4969 193.664 19.4969 193.664" stroke="#808080" stroke-width="0.9725" stroke-miterlimit="10"/>
<path d="M19.4969 230.657C19.4969 230.657 13.3313 222.469 13.3313 212.161C13.3313 201.852 19.4969 193.664 19.4969 193.664" stroke="#808080" stroke-width="0.9725" stroke-miterlimit="10"/>
<path d="M19.497 230.657C19.497 230.657 7.16567 226.534 7.16567 212.161C7.16567 197.787 19.497 193.664 19.497 193.664" stroke="#808080" stroke-width="0.9725" stroke-miterlimit="10"/>
<path d="M2.94498 220.446C4.92888 219.59 10.2193 217.801 19.4969 217.801C28.7746 217.801 34.065 219.61 36.0489 220.446" stroke="#808080" stroke-width="0.9725" stroke-miterlimit="10"/>
<path d="M7.32124 226.087C9.24679 225.173 13.0395 223.967 19.4969 223.967C25.9154 223.967 29.6887 225.173 31.6337 226.067" stroke="#808080" stroke-width="0.9725" stroke-miterlimit="10"/>
<path d="M2.94498 203.875C4.92888 204.731 10.2193 206.52 19.4969 206.52C28.7746 206.52 34.065 204.711 36.0489 203.875" stroke="#808080" stroke-width="0.9725" stroke-miterlimit="10"/>
<path d="M7.32124 198.234C9.24679 199.149 13.0395 200.354 19.4969 200.354C25.9154 200.354 29.6887 199.149 31.6337 198.254" stroke="#808080" stroke-width="0.9725" stroke-miterlimit="10"/>
<path d="M47.4271 212.161H191.163" stroke="#808080" stroke-width="0.9725" stroke-miterlimit="10"/>
<path d="M174.261 224.084C174.261 224.084 177.645 212.161 191.163 212.161C177.625 212.161 174.261 200.238 174.261 200.238" stroke="#808080" stroke-width="0.9725" stroke-miterlimit="10"/>
<path d="M219.093 230.657C229.308 230.657 237.59 222.376 237.59 212.161C237.59 201.945 229.308 193.664 219.093 193.664C208.877 193.664 200.596 201.945 200.596 212.161C200.596 222.376 208.877 230.657 219.093 230.657Z" stroke="#808080" stroke-width="0.9725" stroke-miterlimit="10"/>
<path d="M209.601 224.414C210.963 220.524 214.658 217.742 218.995 217.742C223.333 217.742 227.028 220.543 228.39 224.414" stroke="#808080" stroke-width="0.9725" stroke-miterlimit="10"/>
<path d="M210.535 224.589C210.535 224.589 209.757 224.161 208.843 224.238" stroke="#808080" stroke-width="0.9725" stroke-miterlimit="10"/>
<path d="M227.553 224.589C227.553 224.589 228.331 224.161 229.246 224.238" stroke="#808080" stroke-width="0.9725" stroke-miterlimit="10"/>
<path d="M223.722 213.23C225.365 213.23 226.698 210.426 226.698 206.967C226.698 203.508 225.365 200.704 223.722 200.704C222.078 200.704 220.746 203.508 220.746 206.967C220.746 210.426 222.078 213.23 223.722 213.23Z" fill="#808080"/>
<path d="M214.464 213.23C216.107 213.23 217.44 210.426 217.44 206.967C217.44 203.508 216.107 200.704 214.464 200.704C212.82 200.704 211.488 203.508 211.488 206.967C211.488 210.426 212.82 213.23 214.464 213.23Z" fill="#808080"/>
</svg>
