<svg width="267" height="233" viewBox="0 0 267 233" fill="none" xmlns="http://www.w3.org/2000/svg">
<path d="M50.3555 30.6748H49.831V53.6144H50.3555V30.6748Z" fill="#4D4D4D"/>
<path d="M61.5903 42.4105V41.8872L38.5961 41.8872V42.4105L61.5903 42.4105Z" fill="#4D4D4D"/>
<path d="M42.1458 33.8483L41.7749 34.2183L58.0341 50.4389L58.4049 50.0689L42.1458 33.8483Z" fill="#4D4D4D"/>
<path d="M58.4092 34.2203L58.0384 33.8503L41.7792 50.071L42.1501 50.441L58.4092 34.2203Z" fill="#4D4D4D"/>
<path d="M50.0848 44.1955C51.2155 44.1955 52.1321 43.2811 52.1321 42.153C52.1321 41.025 51.2155 40.1106 50.0848 40.1106C48.9541 40.1106 48.0375 41.025 48.0375 42.153C48.0375 43.2811 48.9541 44.1955 50.0848 44.1955Z" fill="#4D4D4D"/>
<path d="M193.244 197.329L194.953 204.165L199.86 199.101L197.931 205.87L204.716 203.946L199.64 208.841L206.493 210.546L199.64 212.251L204.716 217.163L197.931 215.221L199.86 221.99L194.953 216.926L193.244 223.763L191.535 216.926L186.629 221.99L188.557 215.221L181.773 217.163L186.849 212.251L179.996 210.546L186.849 208.841L181.773 203.946L188.557 205.87L186.629 199.101L191.535 204.165L193.244 197.329Z" fill="#4D4D4D" stroke="#4D4D4D" stroke-width="0.9725" stroke-miterlimit="10" stroke-linejoin="round"/>
<path d="M108.12 43.8915H81.9788C79.7284 43.8915 77.9011 42.0685 77.9011 39.8235V5.06803C77.9011 2.82302 79.7284 1 81.9788 1H108.12C110.37 1 112.198 2.82302 112.198 5.06803V39.8235C112.198 42.0685 110.37 43.8915 108.12 43.8915Z" fill="#4D4D4D" stroke="#4D4D4D" stroke-width="0.9725" stroke-miterlimit="10"/>
<path d="M82.6455 4.09272V9.35522H82.0083V4.76081H81.9775L80.6927 5.61391V4.96638L82.0083 4.09272H82.6455Z" fill="white"/>
<path d="M146.562 43.8915H120.438C118.187 43.8915 116.36 42.0685 116.36 39.8235V5.06803C116.36 2.82302 118.187 1 120.438 1H146.579C148.829 1 150.657 2.82302 150.657 5.06803V39.8235C150.657 42.0685 148.829 43.8915 146.562 43.8915Z" fill="white" stroke="#4D4D4D" stroke-width="0.9725" stroke-miterlimit="10"/>
<path d="M119.246 9.35522V8.8927L120.983 6.99121C121.187 6.76851 121.354 6.57494 121.486 6.41048C121.618 6.24432 121.716 6.08843 121.779 5.94282C121.844 5.7955 121.877 5.64132 121.877 5.48029C121.877 5.29528 121.832 5.13511 121.743 4.99978C121.656 4.86445 121.536 4.75995 121.384 4.68629C121.231 4.61263 121.06 4.5758 120.87 4.5758C120.667 4.5758 120.491 4.61777 120.34 4.70171C120.191 4.78394 120.076 4.89957 119.993 5.0486C119.913 5.19764 119.873 5.37237 119.873 5.5728H119.266C119.266 5.26445 119.337 4.99379 119.479 4.76081C119.622 4.52784 119.815 4.34625 120.06 4.21606C120.307 4.08587 120.584 4.02077 120.89 4.02077C121.198 4.02077 121.472 4.08587 121.71 4.21606C121.948 4.34625 122.135 4.52184 122.27 4.74282C122.405 4.96381 122.473 5.20963 122.473 5.48029C122.473 5.67387 122.438 5.86316 122.368 6.04817C122.299 6.23147 122.179 6.43618 122.008 6.6623C121.838 6.88671 121.603 7.1608 121.301 7.48457L120.119 8.7488V8.78992H122.566V9.35522H119.246Z" fill="#4D4D4D"/>
<path d="M185.021 43.8915H158.88C156.63 43.8915 154.802 42.0685 154.802 39.8235V5.06803C154.802 2.82302 156.63 1 158.88 1H185.021C187.272 1 189.099 2.82302 189.099 5.06803V39.8235C189.099 42.0685 187.272 43.8915 185.021 43.8915Z" fill="white" stroke="#4D4D4D" stroke-width="0.9725" stroke-miterlimit="10"/>
<path d="M159.474 9.42717C159.135 9.42717 158.832 9.36893 158.567 9.25244C158.303 9.13595 158.093 8.97407 157.937 8.76679C157.783 8.5578 157.699 8.3154 157.685 8.0396H158.333C158.347 8.20919 158.405 8.35566 158.508 8.479C158.61 8.60062 158.745 8.69484 158.911 8.76165C159.077 8.82846 159.261 8.86186 159.464 8.86186C159.69 8.86186 159.89 8.82246 160.065 8.74366C160.24 8.66486 160.377 8.55523 160.476 8.41476C160.575 8.27429 160.625 8.11155 160.625 7.92654C160.625 7.73296 160.577 7.56251 160.481 7.41519C160.385 7.26615 160.245 7.14967 160.06 7.06573C159.875 6.98179 159.649 6.93982 159.381 6.93982H158.96V6.37451H159.381C159.59 6.37451 159.774 6.33682 159.931 6.26145C160.09 6.18607 160.215 6.07986 160.304 5.94282C160.395 5.80577 160.44 5.64475 160.44 5.45974C160.44 5.28158 160.401 5.12655 160.322 4.99464C160.243 4.86274 160.132 4.75995 159.988 4.68629C159.846 4.61263 159.678 4.5758 159.484 4.5758C159.302 4.5758 159.131 4.60921 158.97 4.67601C158.811 4.74111 158.681 4.83619 158.58 4.96124C158.479 5.08458 158.424 5.23361 158.415 5.40835H157.798C157.809 5.13254 157.892 4.891 158.048 4.68372C158.204 4.47473 158.407 4.31199 158.659 4.1955C158.913 4.07901 159.191 4.02077 159.494 4.02077C159.82 4.02077 160.099 4.08672 160.332 4.21863C160.565 4.34882 160.744 4.52098 160.869 4.73512C160.994 4.94925 161.057 5.18051 161.057 5.4289C161.057 5.72526 160.979 5.97794 160.823 6.18693C160.669 6.39592 160.459 6.54068 160.193 6.62119V6.6623C160.526 6.71712 160.785 6.85845 160.972 7.08628C161.159 7.31241 161.252 7.59249 161.252 7.92654C161.252 8.21262 161.174 8.46958 161.018 8.69741C160.864 8.92353 160.653 9.10169 160.386 9.23188C160.119 9.36208 159.815 9.42717 159.474 9.42717Z" fill="#4D4D4D"/>
<path d="M223.463 43.8915H197.322C195.072 43.8915 193.244 42.0685 193.244 39.8235V5.06803C193.244 2.82302 195.072 1 197.322 1H223.463C225.714 1 227.541 2.82302 227.541 5.06803V39.8235C227.558 42.0685 225.731 43.8915 223.463 43.8915Z" fill="white" stroke="#4D4D4D" stroke-width="0.9725" stroke-miterlimit="10"/>
<path d="M196.022 8.276V7.7518L198.335 4.09272H198.715V4.90471H198.458L196.711 7.66958V7.71069H199.825V8.276H196.022ZM198.499 9.35522V8.11669V7.87258V4.09272H199.106V9.35522H198.499Z" fill="#4D4D4D"/>
<path d="M261.922 43.8915H235.781C233.531 43.8915 231.703 42.0685 231.703 39.8235V5.06803C231.703 2.82302 233.531 1 235.781 1H261.922C264.173 1 266 2.82302 266 5.06803V39.8235C266 42.0685 264.173 43.8915 261.922 43.8915Z" fill="#4D4D4D" stroke="#4D4D4D" stroke-width="0.9725" stroke-miterlimit="10"/>
<path d="M236.24 9.42717C235.939 9.42717 235.667 9.36722 235.426 9.2473C235.184 9.12739 234.991 8.96293 234.845 8.75394C234.699 8.54495 234.62 8.30683 234.606 8.0396H235.223C235.247 8.27771 235.355 8.47471 235.546 8.6306C235.74 8.78478 235.971 8.86186 236.24 8.86186C236.456 8.86186 236.648 8.81133 236.816 8.71026C236.985 8.60919 237.118 8.47043 237.214 8.29399C237.312 8.11583 237.361 7.91455 237.361 7.69014C237.361 7.46059 237.31 7.25588 237.209 7.076C237.11 6.89442 236.973 6.75138 236.798 6.64688C236.623 6.54239 236.424 6.48928 236.199 6.48757C236.038 6.48586 235.873 6.5107 235.703 6.56209C235.534 6.61177 235.394 6.67601 235.284 6.75481L234.688 6.68286L235.007 4.09272H237.741V4.65803H235.541L235.356 6.21006H235.387C235.495 6.1244 235.63 6.05331 235.793 5.99678C235.956 5.94025 236.125 5.91198 236.302 5.91198C236.624 5.91198 236.911 5.98907 237.163 6.14325C237.416 6.29571 237.615 6.5047 237.759 6.77022C237.904 7.03575 237.977 7.33896 237.977 7.67986C237.977 8.01562 237.902 8.3154 237.751 8.57921C237.602 8.84131 237.397 9.04859 237.134 9.20105C236.872 9.3518 236.574 9.42717 236.24 9.42717Z" fill="white"/>
<path d="M31.219 90.9186H5.0777C2.82735 90.9186 1 89.0956 1 86.8506V52.0951C1 49.8501 2.82735 48.0271 5.0777 48.0271H31.219C33.4693 48.0271 35.2967 49.8501 35.2967 52.0951V86.8506C35.3136 89.0956 33.4693 90.9186 31.219 90.9186Z" fill="#4D4D4D" stroke="#4D4D4D" stroke-width="0.9725" stroke-miterlimit="10"/>
<path d="M5.64294 56.455C5.4271 56.4516 5.21125 56.4105 4.99541 56.3317C4.77956 56.2529 4.58256 56.1201 4.4044 55.9334C4.22625 55.7449 4.08321 55.4906 3.97528 55.1702C3.86736 54.8482 3.8134 54.4439 3.8134 53.9574C3.8134 53.4914 3.85708 53.0786 3.94445 52.7188C4.03182 52.3574 4.15858 52.0533 4.32475 51.8066C4.49091 51.5582 4.69134 51.3698 4.92603 51.2413C5.16243 51.1128 5.42881 51.0486 5.72517 51.0486C6.01982 51.0486 6.28191 51.1077 6.51146 51.2259C6.74273 51.3424 6.93116 51.5051 7.07677 51.7141C7.22238 51.9231 7.3166 52.1638 7.35943 52.4362H6.73245C6.6742 52.1998 6.56114 52.0036 6.39326 51.8477C6.22538 51.6919 6.00269 51.6139 5.72517 51.6139C5.31746 51.6139 4.99627 51.7912 4.76158 52.1458C4.5286 52.5004 4.41126 52.9981 4.40954 53.6387H4.45066C4.54659 53.4931 4.66051 53.3689 4.79241 53.2662C4.92603 53.1617 5.07335 53.0811 5.23438 53.0246C5.39541 52.9681 5.56586 52.9398 5.74573 52.9398C6.04722 52.9398 6.32303 53.0152 6.57313 53.1659C6.82324 53.315 7.02367 53.5214 7.17442 53.7852C7.32516 54.0473 7.40054 54.3479 7.40054 54.6871C7.40054 55.0126 7.32773 55.3107 7.18212 55.5813C7.03651 55.8503 6.8318 56.0644 6.56799 56.2237C6.3059 56.3813 5.99755 56.4584 5.64294 56.455ZM5.64294 55.8897C5.85879 55.8897 6.05236 55.8357 6.22367 55.7278C6.39669 55.6199 6.53288 55.4751 6.63223 55.2936C6.7333 55.112 6.78384 54.9098 6.78384 54.6871C6.78384 54.4696 6.73502 54.2717 6.63737 54.0936C6.54144 53.9137 6.40868 53.7706 6.23909 53.6644C6.07121 53.5582 5.87935 53.5051 5.6635 53.5051C5.50076 53.5051 5.34915 53.5377 5.20868 53.6028C5.06821 53.6662 4.94487 53.7535 4.83866 53.8649C4.73417 53.9762 4.65194 54.1038 4.59198 54.2477C4.53203 54.3899 4.50205 54.5398 4.50205 54.6974C4.50205 54.9064 4.55087 55.1017 4.64852 55.2833C4.74787 55.4649 4.8832 55.6113 5.05451 55.7227C5.22753 55.834 5.42367 55.8897 5.64294 55.8897Z" fill="white"/>
<path d="M69.678 90.9186H43.5367C41.2863 90.9186 39.459 89.0956 39.459 86.8506V52.0951C39.459 49.8501 41.2863 48.0271 43.5367 48.0271H69.678C71.9283 48.0271 73.7557 49.8501 73.7557 52.0951V86.8506C73.7557 89.0956 71.9283 90.9186 69.678 90.9186Z" fill="white" stroke="#4D4D4D" stroke-width="0.9725" stroke-miterlimit="10"/>
<path d="M42.51 56.3831L44.8638 51.727V51.6859H42.1503V51.1206H45.5216V51.7167L43.1781 56.3831H42.51Z" fill="#4D4D4D"/>
<path d="M108.12 90.9186H81.9788C79.7284 90.9186 77.9011 89.0956 77.9011 86.8506V52.0951C77.9011 49.8501 79.7284 48.0271 81.9788 48.0271H108.12C110.37 48.0271 112.198 49.8501 112.198 52.0951V86.8506C112.198 89.0956 110.37 90.9186 108.12 90.9186Z" fill="white" stroke="#4D4D4D" stroke-width="0.9725" stroke-miterlimit="10"/>
<path d="M82.4811 56.455C82.1282 56.455 81.8164 56.3925 81.5458 56.2674C81.2768 56.1407 81.067 55.9668 80.9162 55.7458C80.7655 55.5231 80.6909 55.2696 80.6927 54.9852C80.6909 54.7625 80.7346 54.5569 80.8237 54.3685C80.9128 54.1784 81.0344 54.0199 81.1886 53.8931C81.3445 53.7647 81.5184 53.6833 81.7102 53.649V53.6182C81.4584 53.5531 81.258 53.4118 81.1089 53.1942C80.9599 52.9749 80.8862 52.7257 80.888 52.4465C80.8862 52.1792 80.9539 51.9402 81.0909 51.7295C81.228 51.5188 81.4164 51.3527 81.6563 51.231C81.8978 51.1094 82.1727 51.0486 82.4811 51.0486C82.786 51.0486 83.0584 51.1094 83.2982 51.231C83.538 51.3527 83.7265 51.5188 83.8635 51.7295C84.0023 51.9402 84.0725 52.1792 84.0742 52.4465C84.0725 52.7257 83.9963 52.9749 83.8455 53.1942C83.6965 53.4118 83.4986 53.5531 83.252 53.6182V53.649C83.4421 53.6833 83.6134 53.7647 83.7659 53.8931C83.9183 54.0199 84.04 54.1784 84.1308 54.3685C84.2216 54.5569 84.2678 54.7625 84.2695 54.9852C84.2678 55.2696 84.1907 55.5231 84.0383 55.7458C83.8875 55.9668 83.6777 56.1407 83.4087 56.2674C83.1415 56.3925 82.8323 56.455 82.4811 56.455ZM82.4811 55.8897C82.7192 55.8897 82.9248 55.8512 83.0978 55.7741C83.2708 55.697 83.4044 55.5882 83.4986 55.4477C83.5929 55.3073 83.6408 55.1428 83.6425 54.9544C83.6408 54.7557 83.5894 54.5801 83.4884 54.4276C83.3873 54.2751 83.2494 54.1552 83.0747 54.0679C82.9016 53.9805 82.7038 53.9368 82.4811 53.9368C82.2567 53.9368 82.0563 53.9805 81.8798 54.0679C81.7051 54.1552 81.5672 54.2751 81.4661 54.4276C81.3667 54.5801 81.3179 54.7557 81.3196 54.9544C81.3179 55.1428 81.3633 55.3073 81.4558 55.4477C81.55 55.5882 81.6845 55.697 81.8593 55.7741C82.034 55.8512 82.2413 55.8897 82.4811 55.8897ZM82.4811 53.3921C82.6695 53.3921 82.8366 53.3544 82.9822 53.279C83.1295 53.2036 83.2451 53.0983 83.3291 52.9629C83.413 52.8276 83.4558 52.6692 83.4575 52.4876C83.4558 52.3094 83.4139 52.1544 83.3316 52.0225C83.2494 51.8889 83.1355 51.7861 82.9899 51.7141C82.8443 51.6405 82.6747 51.6036 82.4811 51.6036C82.2841 51.6036 82.1119 51.6405 81.9646 51.7141C81.8173 51.7861 81.7034 51.8889 81.6229 52.0225C81.5423 52.1544 81.5029 52.3094 81.5047 52.4876C81.5029 52.6692 81.5432 52.8276 81.6254 52.9629C81.7094 53.0983 81.825 53.2036 81.9723 53.279C82.1196 53.3544 82.2892 53.3921 82.4811 53.3921Z" fill="#4D4D4D"/>
<path d="M146.562 90.9186H120.438C118.187 90.9186 116.36 89.0956 116.36 86.8506V52.0951C116.36 49.8501 118.187 48.0271 120.438 48.0271H146.579C148.829 48.0271 150.657 49.8501 150.657 52.0951V86.8506C150.657 89.0956 148.829 90.9186 146.562 90.9186Z" fill="white" stroke="#4D4D4D" stroke-width="0.9725" stroke-miterlimit="10"/>
<path d="M120.921 51.0486C121.137 51.0503 121.353 51.0914 121.569 51.1719C121.784 51.2525 121.981 51.3861 122.16 51.5728C122.338 51.7578 122.481 52.0105 122.589 52.3308C122.697 52.6512 122.751 53.0529 122.751 53.536C122.751 54.0036 122.706 54.419 122.617 54.7822C122.53 55.1437 122.403 55.4486 122.237 55.697C122.072 55.9454 121.872 56.1338 121.635 56.2623C121.401 56.3908 121.135 56.455 120.839 56.455C120.544 56.455 120.281 56.3968 120.05 56.2803C119.82 56.1621 119.632 55.9985 119.485 55.7895C119.339 55.5788 119.246 55.3347 119.204 55.0572H119.831C119.888 55.2987 120 55.4983 120.168 55.6559C120.338 55.8118 120.561 55.8897 120.839 55.8897C121.245 55.8897 121.565 55.7124 121.8 55.3578C122.036 55.0032 122.154 54.5021 122.154 53.8546H122.113C122.017 53.9985 121.903 54.1227 121.772 54.2272C121.64 54.3317 121.493 54.4122 121.332 54.4687C121.171 54.5252 121 54.5535 120.818 54.5535C120.517 54.5535 120.24 54.479 119.988 54.33C119.738 54.1792 119.538 53.9728 119.387 53.7107C119.238 53.4469 119.163 53.1454 119.163 52.8062C119.163 52.4841 119.235 52.1895 119.379 51.9223C119.525 51.6533 119.729 51.4392 119.991 51.2799C120.255 51.1206 120.565 51.0435 120.921 51.0486ZM120.921 51.6139C120.705 51.6139 120.511 51.6679 120.338 51.7758C120.166 51.882 120.03 52.0259 119.929 52.2075C119.83 52.3874 119.78 52.5869 119.78 52.8062C119.78 53.0255 119.828 53.225 119.924 53.4049C120.022 53.5831 120.154 53.7253 120.322 53.8315C120.492 53.936 120.685 53.9882 120.9 53.9882C121.063 53.9882 121.215 53.9565 121.355 53.8931C121.496 53.828 121.618 53.7398 121.723 53.6285C121.829 53.5154 121.912 53.3878 121.972 53.2456C122.032 53.1017 122.062 52.9518 122.062 52.7959C122.062 52.5904 122.012 52.3976 121.913 52.2178C121.815 52.0379 121.68 51.8923 121.507 51.7809C121.336 51.6696 121.14 51.6139 120.921 51.6139Z" fill="#4D4D4D"/>
<path d="M185.021 90.9186H158.88C156.63 90.9186 154.802 89.0956 154.802 86.8506V52.0951C154.802 49.8501 156.63 48.0271 158.88 48.0271H185.021C187.272 48.0271 189.099 49.8501 189.099 52.0951V86.8506C189.099 89.0956 187.272 90.9186 185.021 90.9186Z" fill="#4D4D4D" stroke="#4D4D4D" stroke-width="0.9725" stroke-miterlimit="10"/>
<path d="M159.546 51.1206V56.3831H158.908V51.7886H158.878L157.593 52.6417V51.9942L158.908 51.1206H159.546ZM159.412 65.455C159.025 65.455 158.695 65.3497 158.423 65.1389C158.15 64.9265 157.942 64.619 157.798 64.2165C157.655 63.8122 157.583 63.324 157.583 62.7518C157.583 62.1831 157.655 61.6974 157.798 61.2949C157.944 60.8906 158.153 60.5822 158.425 60.3698C158.699 60.1557 159.028 60.0486 159.412 60.0486C159.796 60.0486 160.124 60.1557 160.396 60.3698C160.67 60.5822 160.879 60.8906 161.023 61.2949C161.169 61.6974 161.242 62.1831 161.242 62.7518C161.242 63.324 161.17 63.8122 161.026 64.2165C160.882 64.619 160.674 64.9265 160.401 65.1389C160.129 65.3497 159.799 65.455 159.412 65.455ZM159.412 64.8897C159.796 64.8897 160.094 64.7047 160.306 64.3347C160.519 63.9646 160.625 63.437 160.625 62.7518C160.625 62.2961 160.576 61.9081 160.479 61.5878C160.383 61.2674 160.244 61.0233 160.062 60.8555C159.882 60.6876 159.666 60.6036 159.412 60.6036C159.032 60.6036 158.735 60.7912 158.52 61.1664C158.306 61.5398 158.199 62.0683 158.199 62.7518C158.199 63.2075 158.247 63.5946 158.343 63.9133C158.439 64.2319 158.577 64.4743 158.757 64.6404C158.938 64.8066 159.157 64.8897 159.412 64.8897Z" fill="white"/>
<path d="M223.463 90.9186H197.322C195.072 90.9186 193.244 89.0956 193.244 86.8506V52.0951C193.244 49.8501 195.072 48.0271 197.322 48.0271H223.463C225.714 48.0271 227.541 49.8501 227.541 52.0951V86.8506C227.558 89.0956 225.731 90.9186 223.463 90.9186Z" fill="white" stroke="#4D4D4D" stroke-width="0.9725" stroke-miterlimit="10"/>
<path d="M197.996 51.1206V56.3831H197.358V51.7886H197.328L196.043 52.6417V51.9942L197.358 51.1206H197.996ZM197.996 60.1206V65.3831H197.358V60.7886H197.328L196.043 61.6417V60.9942L197.358 60.1206H197.996Z" fill="#4D4D4D"/>
<path d="M261.922 90.9186H235.781C233.531 90.9186 231.703 89.0956 231.703 86.8506V52.0951C231.703 49.8501 233.531 48.0271 235.781 48.0271H261.922C264.173 48.0271 266 49.8501 266 52.0951V86.8506C266 89.0956 264.173 90.9186 261.922 90.9186Z" fill="white" stroke="#4D4D4D" stroke-width="0.9725" stroke-miterlimit="10"/>
<path d="M236.446 51.1206V56.3831H235.809V51.7886H235.778L234.493 52.6417V51.9942L235.809 51.1206H236.446ZM234.596 65.3831V64.9205L236.333 63.019C236.537 62.7963 236.704 62.6028 236.836 62.4383C236.968 62.2721 237.066 62.1163 237.129 61.9707C237.194 61.8233 237.227 61.6692 237.227 61.5081C237.227 61.3231 237.182 61.1629 237.093 61.0276C237.006 60.8923 236.886 60.7878 236.734 60.7141C236.581 60.6405 236.41 60.6036 236.22 60.6036C236.018 60.6036 235.841 60.6456 235.69 60.7295C235.541 60.8118 235.426 60.9274 235.343 61.0764C235.263 61.2255 235.223 61.4002 235.223 61.6006H234.616C234.616 61.2923 234.687 61.0216 234.83 60.7886C234.972 60.5557 235.165 60.3741 235.41 60.2439C235.657 60.1137 235.934 60.0486 236.24 60.0486C236.549 60.0486 236.822 60.1137 237.06 60.2439C237.298 60.3741 237.485 60.5497 237.62 60.7707C237.755 60.9916 237.823 61.2375 237.823 61.5081C237.823 61.7017 237.788 61.891 237.718 62.076C237.649 62.2593 237.529 62.464 237.358 62.6901C237.188 62.9145 236.953 63.1886 236.651 63.5124L235.469 64.7766V64.8177H237.916V65.3831H234.596Z" fill="#4D4D4D"/>
<path d="M31.219 137.946H5.0777C2.82735 137.946 1 136.123 1 133.878V99.1222C1 96.8772 2.82735 95.0542 5.0777 95.0542H31.219C33.4693 95.0542 35.2967 96.8772 35.2967 99.1222V133.878C35.3136 136.123 33.4693 137.946 31.219 137.946Z" fill="white" stroke="#4D4D4D" stroke-width="0.9725" stroke-miterlimit="10"/>
<path d="M5.74573 98.1489V103.411H5.10847V98.817H5.07764L3.79284 99.6701V99.0225L5.10847 98.1489H5.74573ZM5.67378 112.483C5.33459 112.483 5.03224 112.425 4.76672 112.309C4.50291 112.192 4.29306 112.03 4.13717 111.823C3.98299 111.614 3.89905 111.372 3.88535 111.096H4.53288C4.54659 111.265 4.60483 111.412 4.70762 111.535C4.8104 111.657 4.94487 111.751 5.11104 111.818C5.27721 111.885 5.46136 111.918 5.6635 111.918C5.88962 111.918 6.09005 111.879 6.26478 111.8C6.43951 111.721 6.57656 111.611 6.67592 111.471C6.77527 111.33 6.82495 111.168 6.82495 110.983C6.82495 110.789 6.77699 110.619 6.68106 110.471C6.58512 110.322 6.44465 110.206 6.25964 110.122C6.07463 110.038 5.84851 109.996 5.58127 109.996H5.15986V109.431H5.58127C5.79027 109.431 5.97356 109.393 6.13116 109.318C6.29048 109.242 6.41467 109.136 6.50375 108.999C6.59455 108.862 6.63994 108.701 6.63994 108.516C6.63994 108.338 6.60054 108.183 6.52174 108.051C6.44294 107.919 6.33159 107.816 6.1877 107.742C6.04551 107.669 5.87763 107.632 5.68406 107.632C5.50247 107.632 5.33117 107.665 5.17014 107.732C5.01083 107.797 4.88063 107.892 4.77956 108.017C4.67849 108.141 4.62368 108.29 4.61511 108.464H3.99841C4.00869 108.189 4.09177 107.947 4.24766 107.74C4.40355 107.531 4.6074 107.368 4.85922 107.252C5.11275 107.135 5.39112 107.077 5.69434 107.077C6.01982 107.077 6.29904 107.143 6.53202 107.275C6.76499 107.405 6.94401 107.577 7.06906 107.791C7.19412 108.005 7.25664 108.237 7.25664 108.485C7.25664 108.781 7.1787 109.034 7.02281 109.243C6.86863 109.452 6.65879 109.597 6.39326 109.677V109.718C6.72559 109.773 6.98512 109.915 7.17185 110.142C7.35857 110.369 7.45193 110.649 7.45193 110.983C7.45193 111.269 7.37399 111.526 7.2181 111.754C7.06392 111.98 6.85322 112.158 6.58598 112.288C6.31874 112.418 6.01468 112.483 5.67378 112.483Z" fill="#4D4D4D"/>
<path d="M69.678 137.946H43.5367C41.2863 137.946 39.459 136.123 39.459 133.878V99.1222C39.459 96.8772 41.2863 95.0542 43.5367 95.0542H69.678C71.9283 95.0542 73.7557 96.8772 73.7557 99.1222V133.878C73.7557 136.123 71.9283 137.946 69.678 137.946Z" fill="white" stroke="#4D4D4D" stroke-width="0.9725" stroke-miterlimit="10"/>
<path d="M44.1957 98.1489V103.411H43.5584V98.817H43.5276L42.2428 99.6701V99.0225L43.5584 98.1489H44.1957ZM42.2222 111.332V110.808L44.5349 107.149H44.9152V107.961H44.6582L42.9109 110.726V110.767H46.0252V111.332H42.2222ZM44.6993 112.411V111.173V110.929V107.149H45.3057V112.411H44.6993Z" fill="#4D4D4D"/>
<path d="M146.562 137.946H120.438C118.187 137.946 116.36 136.123 116.36 133.878V99.1222C116.36 96.8772 118.187 95.0542 120.438 95.0542H146.579C148.829 95.0542 150.657 96.8772 150.657 99.1222V133.878C150.657 136.123 148.829 137.946 146.562 137.946Z" fill="white" stroke="#4D4D4D" stroke-width="0.9725" stroke-miterlimit="10"/>
<path d="M121.096 98.1489V103.411H120.458V98.817H120.428L119.143 99.6701V99.0225L120.458 98.1489H121.096ZM120.993 112.483C120.777 112.48 120.561 112.439 120.345 112.36C120.13 112.281 119.933 112.148 119.754 111.962C119.576 111.773 119.433 111.519 119.325 111.199C119.217 110.876 119.163 110.472 119.163 109.986C119.163 109.52 119.207 109.107 119.294 108.747C119.382 108.386 119.509 108.082 119.675 107.835C119.841 107.587 120.041 107.398 120.276 107.27C120.512 107.141 120.779 107.077 121.075 107.077C121.37 107.077 121.632 107.136 121.861 107.254C122.093 107.371 122.281 107.533 122.427 107.742C122.572 107.951 122.667 108.192 122.709 108.464H122.082C122.024 108.228 121.911 108.032 121.743 107.876C121.575 107.72 121.353 107.642 121.075 107.642C120.667 107.642 120.346 107.82 120.112 108.174C119.879 108.529 119.761 109.026 119.76 109.667H119.801C119.897 109.521 120.01 109.397 120.142 109.294C120.276 109.19 120.423 109.109 120.584 109.053C120.745 108.996 120.916 108.968 121.096 108.968C121.397 108.968 121.673 109.044 121.923 109.194C122.173 109.343 122.374 109.55 122.524 109.814C122.675 110.076 122.751 110.376 122.751 110.715C122.751 111.041 122.678 111.339 122.532 111.61C122.386 111.879 122.182 112.093 121.918 112.252C121.656 112.41 121.348 112.487 120.993 112.483ZM120.993 111.918C121.209 111.918 121.402 111.864 121.574 111.756C121.747 111.648 121.883 111.503 121.982 111.322C122.083 111.14 122.134 110.938 122.134 110.715C122.134 110.498 122.085 110.3 121.987 110.122C121.891 109.942 121.759 109.799 121.589 109.693C121.421 109.587 121.229 109.533 121.013 109.533C120.851 109.533 120.699 109.566 120.559 109.631C120.418 109.694 120.295 109.782 120.189 109.893C120.084 110.005 120.002 110.132 119.942 110.276C119.882 110.418 119.852 110.568 119.852 110.726C119.852 110.935 119.901 111.13 119.998 111.312C120.098 111.493 120.233 111.64 120.404 111.751C120.578 111.862 120.774 111.918 120.993 111.918Z" fill="#4D4D4D"/>
<path d="M185.021 137.946H158.88C156.63 137.946 154.802 136.123 154.802 133.878V99.1222C154.802 96.8772 156.63 95.0542 158.88 95.0542H185.021C187.272 95.0542 189.099 96.8772 189.099 99.1222V133.878C189.099 136.123 187.272 137.946 185.021 137.946Z" fill="white" stroke="#4D4D4D" stroke-width="0.9725" stroke-miterlimit="10"/>
<path d="M159.546 98.1489V103.411H158.908V98.817H158.878L157.593 99.6701V99.0225L158.908 98.1489H159.546ZM157.86 112.411L160.214 107.755V107.714H157.5V107.149H160.872V107.745L158.528 112.411H157.86Z" fill="#4D4D4D"/>
<path d="M223.463 137.946H197.322C195.072 137.946 193.244 136.123 193.244 133.878V99.1222C193.244 96.8772 195.072 95.0542 197.322 95.0542H223.463C225.714 95.0542 227.541 96.8772 227.541 99.1222V133.878C227.558 136.123 225.731 137.946 223.463 137.946Z" fill="white" stroke="#4D4D4D" stroke-width="0.9725" stroke-miterlimit="10"/>
<path d="M197.996 98.1489V103.411H197.358V98.817H197.328L196.043 99.6701V99.0225L197.358 98.1489H197.996ZM197.831 112.483C197.478 112.483 197.167 112.421 196.896 112.296C196.627 112.169 196.417 111.995 196.266 111.774C196.116 111.551 196.041 111.298 196.043 111.014C196.041 110.791 196.085 110.585 196.174 110.397C196.263 110.207 196.385 110.048 196.539 109.921C196.695 109.793 196.869 109.712 197.06 109.677V109.647C196.809 109.581 196.608 109.44 196.459 109.223C196.31 109.003 196.236 108.754 196.238 108.475C196.236 108.208 196.304 107.969 196.441 107.758C196.578 107.547 196.767 107.381 197.006 107.259C197.248 107.138 197.523 107.077 197.831 107.077C198.136 107.077 198.409 107.138 198.648 107.259C198.888 107.381 199.077 107.547 199.214 107.758C199.352 107.969 199.423 108.208 199.424 108.475C199.423 108.754 199.346 109.003 199.196 109.223C199.047 109.44 198.849 109.581 198.602 109.647V109.677C198.792 109.712 198.964 109.793 199.116 109.921C199.269 110.048 199.39 110.207 199.481 110.397C199.572 110.585 199.618 110.791 199.62 111.014C199.618 111.298 199.541 111.551 199.388 111.774C199.238 111.995 199.028 112.169 198.759 112.296C198.492 112.421 198.182 112.483 197.831 112.483ZM197.831 111.918C198.069 111.918 198.275 111.879 198.448 111.802C198.621 111.725 198.755 111.617 198.849 111.476C198.943 111.336 198.991 111.171 198.993 110.983C198.991 110.784 198.94 110.608 198.839 110.456C198.737 110.303 198.6 110.184 198.425 110.096C198.252 110.009 198.054 109.965 197.831 109.965C197.607 109.965 197.406 110.009 197.23 110.096C197.055 110.184 196.917 110.303 196.816 110.456C196.717 110.608 196.668 110.784 196.67 110.983C196.668 111.171 196.714 111.336 196.806 111.476C196.9 111.617 197.035 111.725 197.209 111.802C197.384 111.879 197.591 111.918 197.831 111.918ZM197.831 109.42C198.02 109.42 198.187 109.383 198.332 109.307C198.48 109.232 198.595 109.127 198.679 108.991C198.763 108.856 198.806 108.697 198.808 108.516C198.806 108.338 198.764 108.183 198.682 108.051C198.6 107.917 198.486 107.814 198.34 107.742C198.194 107.669 198.025 107.632 197.831 107.632C197.634 107.632 197.462 107.669 197.315 107.742C197.167 107.814 197.054 107.917 196.973 108.051C196.893 108.183 196.853 108.338 196.855 108.516C196.853 108.697 196.893 108.856 196.976 108.991C197.06 109.127 197.175 109.232 197.323 109.307C197.47 109.383 197.639 109.42 197.831 109.42Z" fill="#4D4D4D"/>
<path d="M261.922 137.946H235.781C233.531 137.946 231.703 136.123 231.703 133.878V99.1222C231.703 96.8772 233.531 95.0542 235.781 95.0542H261.922C264.173 95.0542 266 96.8772 266 99.1222V133.878C266 136.123 264.173 137.946 261.922 137.946Z" fill="white" stroke="#4D4D4D" stroke-width="0.9725" stroke-miterlimit="10"/>
<path d="M236.446 98.1489V103.411H235.809V98.817H235.778L234.493 99.6701V99.0225L235.809 98.1489H236.446ZM236.271 107.077C236.487 107.079 236.703 107.12 236.919 107.2C237.134 107.281 237.331 107.414 237.51 107.601C237.688 107.786 237.831 108.039 237.939 108.359C238.047 108.679 238.101 109.081 238.101 109.564C238.101 110.032 238.056 110.447 237.967 110.811C237.88 111.172 237.753 111.477 237.587 111.725C237.422 111.974 237.222 112.162 236.985 112.291C236.751 112.419 236.485 112.483 236.189 112.483C235.894 112.483 235.631 112.425 235.4 112.309C235.17 112.19 234.982 112.027 234.835 111.818C234.689 111.607 234.596 111.363 234.555 111.085H235.182C235.238 111.327 235.35 111.527 235.518 111.684C235.688 111.84 235.911 111.918 236.189 111.918C236.595 111.918 236.915 111.741 237.15 111.386C237.386 111.032 237.504 110.53 237.504 109.883H237.463C237.367 110.027 237.253 110.151 237.122 110.255C236.99 110.36 236.843 110.441 236.682 110.497C236.521 110.554 236.35 110.582 236.168 110.582C235.867 110.582 235.59 110.507 235.338 110.358C235.088 110.208 234.888 110.001 234.737 109.739C234.588 109.475 234.513 109.174 234.513 108.835C234.513 108.512 234.585 108.218 234.729 107.951C234.875 107.682 235.079 107.467 235.341 107.308C235.605 107.149 235.915 107.072 236.271 107.077ZM236.271 107.642C236.055 107.642 235.861 107.696 235.688 107.804C235.516 107.91 235.38 108.054 235.279 108.236C235.18 108.416 235.13 108.615 235.13 108.835C235.13 109.054 235.178 109.253 235.274 109.433C235.372 109.611 235.504 109.754 235.672 109.86C235.842 109.964 236.035 110.017 236.25 110.017C236.413 110.017 236.565 109.985 236.705 109.921C236.846 109.856 236.968 109.768 237.073 109.657C237.179 109.544 237.262 109.416 237.322 109.274C237.382 109.13 237.412 108.98 237.412 108.824C237.412 108.619 237.362 108.426 237.263 108.246C237.165 108.066 237.03 107.921 236.857 107.809C236.686 107.698 236.49 107.642 236.271 107.642Z" fill="#4D4D4D"/>
<path d="M31.219 184.973H5.0777C2.82735 184.973 1 183.15 1 180.905V146.149C1 143.904 2.82735 142.081 5.0777 142.081H31.219C33.4693 142.081 35.2967 143.904 35.2967 146.149V180.905C35.3136 183.15 33.4693 184.973 31.219 184.973Z" fill="white" stroke="#4D4D4D" stroke-width="0.9725" stroke-miterlimit="10"/>
<path d="M3.89563 150.439V149.977L5.63267 148.075C5.83652 147.852 6.0044 147.659 6.1363 147.494C6.26821 147.328 6.36585 147.172 6.42924 147.027C6.49433 146.879 6.52688 146.725 6.52688 146.564C6.52688 146.379 6.48234 146.219 6.39326 146.084C6.3059 145.948 6.18598 145.844 6.03352 145.77C5.88106 145.697 5.70975 145.66 5.5196 145.66C5.31746 145.66 5.14102 145.702 4.99027 145.786C4.84123 145.868 4.7256 145.984 4.64338 146.133C4.56286 146.282 4.52261 146.456 4.52261 146.657H3.91618C3.91618 146.348 3.98728 146.078 4.12946 145.845C4.27164 145.612 4.46522 145.43 4.71019 145.3C4.95687 145.17 5.23352 145.105 5.54016 145.105C5.84851 145.105 6.12174 145.17 6.35986 145.3C6.59797 145.43 6.78469 145.606 6.92003 145.827C7.05536 146.048 7.12302 146.294 7.12302 146.564C7.12302 146.758 7.08791 146.947 7.01767 147.132C6.94915 147.315 6.82923 147.52 6.65793 147.746C6.48834 147.971 6.25279 148.245 5.95129 148.569L4.76929 149.833V149.874H7.21553V150.439H3.89563ZM5.61211 159.511C5.22496 159.511 4.8952 159.406 4.62282 159.195C4.35044 158.983 4.14231 158.675 3.99841 158.273C3.85451 157.868 3.78257 157.38 3.78257 156.808C3.78257 156.239 3.85451 155.754 3.99841 155.351C4.14402 154.947 4.35301 154.638 4.62539 154.426C4.89948 154.212 5.22838 154.105 5.61211 154.105C5.99583 154.105 6.32388 154.212 6.59626 154.426C6.87035 154.638 7.07934 154.947 7.22324 155.351C7.36885 155.754 7.44165 156.239 7.44165 156.808C7.44165 157.38 7.3697 157.868 7.22581 158.273C7.08191 158.675 6.87377 158.983 6.6014 159.195C6.32902 159.406 5.99926 159.511 5.61211 159.511ZM5.61211 158.946C5.99583 158.946 6.2939 158.761 6.50632 158.391C6.71874 158.021 6.82495 157.493 6.82495 156.808C6.82495 156.352 6.77613 155.964 6.67849 155.644C6.58255 155.324 6.4438 155.079 6.26221 154.912C6.08234 154.744 5.86564 154.66 5.61211 154.66C5.23181 154.66 4.9346 154.847 4.72046 155.223C4.50633 155.596 4.39927 156.124 4.39927 156.808C4.39927 157.264 4.44723 157.651 4.54316 157.969C4.63909 158.288 4.77699 158.53 4.95687 158.697C5.13845 158.863 5.35686 158.946 5.61211 158.946Z" fill="#4D4D4D"/>
<path d="M69.678 184.973H43.5367C41.2863 184.973 39.459 183.15 39.459 180.905V146.149C39.459 143.904 41.2863 142.081 43.5367 142.081H69.678C71.9283 142.081 73.7557 143.904 73.7557 146.149V180.905C73.7557 183.15 71.9283 184.973 69.678 184.973Z" fill="white" stroke="#4D4D4D" stroke-width="0.9725" stroke-miterlimit="10"/>
<path d="M42.3456 150.439V149.977L44.0826 148.075C44.2865 147.852 44.4543 147.659 44.5863 147.494C44.7182 147.328 44.8158 147.172 44.8792 147.027C44.9443 146.879 44.9768 146.725 44.9768 146.564C44.9768 146.379 44.9323 146.219 44.8432 146.084C44.7558 145.948 44.6359 145.844 44.4835 145.77C44.331 145.697 44.1597 145.66 43.9696 145.66C43.7674 145.66 43.591 145.702 43.4402 145.786C43.2912 145.868 43.1756 145.984 43.0933 146.133C43.0128 146.282 42.9726 146.456 42.9726 146.657H42.3661C42.3661 146.348 42.4372 146.078 42.5794 145.845C42.7216 145.612 42.9152 145.43 43.1601 145.3C43.4068 145.17 43.6835 145.105 43.9901 145.105C44.2985 145.105 44.5717 145.17 44.8098 145.3C45.0479 145.43 45.2346 145.606 45.37 145.827C45.5053 146.048 45.573 146.294 45.573 146.564C45.573 146.758 45.5379 146.947 45.4676 147.132C45.3991 147.315 45.2792 147.52 45.1079 147.746C44.9383 147.971 44.7027 148.245 44.4012 148.569L43.2192 149.833V149.874H45.6655V150.439H42.3456ZM44.1957 154.177V159.439H43.5584V154.845H43.5276L42.2428 155.698V155.05L43.5584 154.177H44.1957Z" fill="#4D4D4D"/>
<path d="M108.12 184.973H81.9788C79.7284 184.973 77.9011 183.15 77.9011 180.905V146.149C77.9011 143.904 79.7284 142.081 81.9788 142.081H108.12C110.37 142.081 112.198 143.904 112.198 146.149V180.905C112.198 183.15 110.37 184.973 108.12 184.973Z" fill="white" stroke="#4D4D4D" stroke-width="0.9725" stroke-miterlimit="10"/>
<path d="M80.7954 150.439V149.977L82.5325 148.075C82.7363 147.852 82.9042 147.659 83.0361 147.494C83.168 147.328 83.2657 147.172 83.3291 147.027C83.3942 146.879 83.4267 146.725 83.4267 146.564C83.4267 146.379 83.3822 146.219 83.2931 146.084C83.2057 145.948 83.0858 145.844 82.9333 145.77C82.7809 145.697 82.6096 145.66 82.4194 145.66C82.2173 145.66 82.0408 145.702 81.8901 145.786C81.7411 145.868 81.6254 145.984 81.5432 146.133C81.4627 146.282 81.4224 146.456 81.4224 146.657H80.816C80.816 146.348 80.8871 146.078 81.0293 145.845C81.1715 145.612 81.365 145.43 81.61 145.3C81.8567 145.17 82.1333 145.105 82.44 145.105C82.7483 145.105 83.0216 145.17 83.2597 145.3C83.4978 145.43 83.6845 145.606 83.8198 145.827C83.9552 146.048 84.0228 146.294 84.0228 146.564C84.0228 146.758 83.9877 146.947 83.9175 147.132C83.849 147.315 83.7291 147.52 83.5577 147.746C83.3882 147.971 83.1526 148.245 82.8511 148.569L81.6691 149.833V149.874H84.1153V150.439H80.7954ZM80.7954 159.439V158.977L82.5325 157.075C82.7363 156.852 82.9042 156.659 83.0361 156.494C83.168 156.328 83.2657 156.172 83.3291 156.027C83.3942 155.879 83.4267 155.725 83.4267 155.564C83.4267 155.379 83.3822 155.219 83.2931 155.084C83.2057 154.948 83.0858 154.844 82.9333 154.77C82.7809 154.697 82.6096 154.66 82.4194 154.66C82.2173 154.66 82.0408 154.702 81.8901 154.786C81.7411 154.868 81.6254 154.984 81.5432 155.133C81.4627 155.282 81.4224 155.456 81.4224 155.657H80.816C80.816 155.348 80.8871 155.078 81.0293 154.845C81.1715 154.612 81.365 154.43 81.61 154.3C81.8567 154.17 82.1333 154.105 82.44 154.105C82.7483 154.105 83.0216 154.17 83.2597 154.3C83.4978 154.43 83.6845 154.606 83.8198 154.827C83.9552 155.048 84.0228 155.294 84.0228 155.564C84.0228 155.758 83.9877 155.947 83.9175 156.132C83.849 156.315 83.7291 156.52 83.5577 156.746C83.3882 156.971 83.1526 157.245 82.8511 157.569L81.6691 158.833V158.874H84.1153V159.439H80.7954Z" fill="#4D4D4D"/>
<path d="M146.562 184.973H120.438C118.187 184.973 116.36 183.15 116.36 180.905V146.149C116.36 143.904 118.187 142.081 120.438 142.081H146.579C148.829 142.081 150.657 143.904 150.657 146.149V180.905C150.657 183.15 148.829 184.973 146.562 184.973Z" fill="white" stroke="#4D4D4D" stroke-width="0.9725" stroke-miterlimit="10"/>
<path d="M119.246 150.439V149.977L120.983 148.075C121.187 147.852 121.354 147.659 121.486 147.494C121.618 147.328 121.716 147.172 121.779 147.027C121.844 146.879 121.877 146.725 121.877 146.564C121.877 146.379 121.832 146.219 121.743 146.084C121.656 145.948 121.536 145.844 121.384 145.77C121.231 145.697 121.06 145.66 120.87 145.66C120.667 145.66 120.491 145.702 120.34 145.786C120.191 145.868 120.076 145.984 119.993 146.133C119.913 146.282 119.873 146.456 119.873 146.657H119.266C119.266 146.348 119.337 146.078 119.479 145.845C119.622 145.612 119.815 145.43 120.06 145.3C120.307 145.17 120.584 145.105 120.89 145.105C121.198 145.105 121.472 145.17 121.71 145.3C121.948 145.43 122.135 145.606 122.27 145.827C122.405 146.048 122.473 146.294 122.473 146.564C122.473 146.758 122.438 146.947 122.368 147.132C122.299 147.315 122.179 147.52 122.008 147.746C121.838 147.971 121.603 148.245 121.301 148.569L120.119 149.833V149.874H122.566V150.439H119.246ZM121.024 159.511C120.685 159.511 120.382 159.453 120.117 159.336C119.853 159.22 119.643 159.058 119.487 158.851C119.333 158.642 119.249 158.399 119.235 158.124H119.883C119.897 158.293 119.955 158.44 120.058 158.563C120.16 158.685 120.295 158.779 120.461 158.846C120.627 158.912 120.811 158.946 121.013 158.946C121.24 158.946 121.44 158.906 121.615 158.828C121.789 158.749 121.927 158.639 122.026 158.499C122.125 158.358 122.175 158.196 122.175 158.011C122.175 157.817 122.127 157.646 122.031 157.499C121.935 157.35 121.795 157.234 121.61 157.15C121.425 157.066 121.198 157.024 120.931 157.024H120.51V156.458H120.931C121.14 156.458 121.324 156.421 121.481 156.345C121.64 156.27 121.765 156.164 121.854 156.027C121.945 155.89 121.99 155.729 121.99 155.544C121.99 155.366 121.951 155.211 121.872 155.079C121.793 154.947 121.682 154.844 121.538 154.77C121.395 154.697 121.228 154.66 121.034 154.66C120.852 154.66 120.681 154.693 120.52 154.76C120.361 154.825 120.231 154.92 120.13 155.045C120.028 155.169 119.974 155.318 119.965 155.492H119.348C119.359 155.217 119.442 154.975 119.598 154.768C119.754 154.559 119.957 154.396 120.209 154.279C120.463 154.163 120.741 154.105 121.044 154.105C121.37 154.105 121.649 154.171 121.882 154.303C122.115 154.433 122.294 154.605 122.419 154.819C122.544 155.033 122.607 155.264 122.607 155.513C122.607 155.809 122.529 156.062 122.373 156.271C122.219 156.48 122.009 156.625 121.743 156.705V156.746C122.076 156.801 122.335 156.942 122.522 157.17C122.709 157.396 122.802 157.676 122.802 158.011C122.802 158.297 122.724 158.554 122.568 158.781C122.414 159.008 122.203 159.186 121.936 159.316C121.669 159.446 121.365 159.511 121.024 159.511Z" fill="#4D4D4D"/>
<path d="M185.021 184.973H158.88C156.63 184.973 154.802 183.15 154.802 180.905V146.149C154.802 143.904 156.63 142.081 158.88 142.081H185.021C187.272 142.081 189.099 143.904 189.099 146.149V180.905C189.099 183.15 187.272 184.973 185.021 184.973Z" fill="white" stroke="#4D4D4D" stroke-width="0.9725" stroke-miterlimit="10"/>
<path d="M157.696 150.439V149.977L159.433 148.075C159.637 147.852 159.804 147.659 159.936 147.494C160.068 147.328 160.166 147.172 160.229 147.027C160.294 146.879 160.327 146.725 160.327 146.564C160.327 146.379 160.282 146.219 160.193 146.084C160.106 145.948 159.986 145.844 159.834 145.77C159.681 145.697 159.51 145.66 159.32 145.66C159.117 145.66 158.941 145.702 158.79 145.786C158.641 145.868 158.526 145.984 158.443 146.133C158.363 146.282 158.323 146.456 158.323 146.657H157.716C157.716 146.348 157.787 146.078 157.929 145.845C158.072 145.612 158.265 145.43 158.51 145.3C158.757 145.17 159.034 145.105 159.34 145.105C159.649 145.105 159.922 145.17 160.16 145.3C160.398 145.43 160.585 145.606 160.72 145.827C160.855 146.048 160.923 146.294 160.923 146.564C160.923 146.758 160.888 146.947 160.818 147.132C160.749 147.315 160.629 147.52 160.458 147.746C160.288 147.971 160.053 148.245 159.751 148.569L158.569 149.833V149.874H161.016V150.439H157.696ZM157.572 158.36V157.836L159.885 154.177H160.265V154.989H160.008L158.261 157.754V157.795H161.375V158.36H157.572ZM160.049 159.439V158.201V157.957V154.177H160.656V159.439H160.049Z" fill="#4D4D4D"/>
<path d="M223.463 184.973H197.322C195.072 184.973 193.244 183.15 193.244 180.905V146.149C193.244 143.904 195.072 142.081 197.322 142.081H223.463C225.714 142.081 227.541 143.904 227.541 146.149V180.905C227.558 183.15 225.731 184.973 223.463 184.973Z" fill="#4D4D4D" stroke="#4D4D4D" stroke-width="0.9725" stroke-miterlimit="10"/>
<path d="M196.146 150.439V149.977L197.883 148.075C198.087 147.852 198.254 147.659 198.386 147.494C198.518 147.328 198.616 147.172 198.679 147.027C198.744 146.879 198.777 146.725 198.777 146.564C198.777 146.379 198.732 146.219 198.643 146.084C198.556 145.948 198.436 145.844 198.284 145.77C198.131 145.697 197.96 145.66 197.77 145.66C197.567 145.66 197.391 145.702 197.24 145.786C197.091 145.868 196.976 145.984 196.893 146.133C196.813 146.282 196.773 146.456 196.773 146.657H196.166C196.166 146.348 196.237 146.078 196.379 145.845C196.522 145.612 196.715 145.43 196.96 145.3C197.207 145.17 197.484 145.105 197.79 145.105C198.099 145.105 198.372 145.17 198.61 145.3C198.848 145.43 199.035 145.606 199.17 145.827C199.305 146.048 199.373 146.294 199.373 146.564C199.373 146.758 199.338 146.947 199.268 147.132C199.199 147.315 199.079 147.52 198.908 147.746C198.738 147.971 198.503 148.245 198.201 148.569L197.019 149.833V149.874H199.466V150.439H196.146ZM197.79 159.511C197.489 159.511 197.217 159.451 196.976 159.331C196.734 159.211 196.54 159.047 196.395 158.838C196.249 158.629 196.17 158.391 196.156 158.124H196.773C196.797 158.362 196.905 158.559 197.096 158.715C197.29 158.869 197.521 158.946 197.79 158.946C198.006 158.946 198.198 158.895 198.366 158.794C198.535 158.693 198.668 158.554 198.764 158.378C198.862 158.2 198.911 157.999 198.911 157.774C198.911 157.545 198.86 157.34 198.759 157.16C198.66 156.978 198.523 156.835 198.348 156.731C198.173 156.626 197.973 156.573 197.749 156.572C197.588 156.57 197.423 156.595 197.253 156.646C197.084 156.696 196.944 156.76 196.834 156.839L196.238 156.767L196.557 154.177H199.291V154.742H197.091L196.906 156.294H196.937C197.045 156.208 197.18 156.137 197.343 156.081C197.506 156.024 197.675 155.996 197.852 155.996C198.174 155.996 198.461 156.073 198.713 156.227C198.966 156.38 199.165 156.589 199.309 156.854C199.454 157.12 199.527 157.423 199.527 157.764C199.527 158.1 199.452 158.399 199.301 158.663C199.152 158.925 198.946 159.133 198.684 159.285C198.422 159.436 198.124 159.511 197.79 159.511Z" fill="white"/>
<path d="M261.922 184.973H235.781C233.531 184.973 231.703 183.15 231.703 180.905V146.149C231.703 143.904 233.531 142.081 235.781 142.081H261.922C264.173 142.081 266 143.904 266 146.149V180.905C266 183.15 264.173 184.973 261.922 184.973Z" fill="white" stroke="#4D4D4D" stroke-width="0.9725" stroke-miterlimit="10"/>
<path d="M234.596 150.439V149.977L236.333 148.075C236.537 147.852 236.704 147.659 236.836 147.494C236.968 147.328 237.066 147.172 237.129 147.027C237.194 146.879 237.227 146.725 237.227 146.564C237.227 146.379 237.182 146.219 237.093 146.084C237.006 145.948 236.886 145.844 236.734 145.77C236.581 145.697 236.41 145.66 236.22 145.66C236.018 145.66 235.841 145.702 235.69 145.786C235.541 145.868 235.426 145.984 235.343 146.133C235.263 146.282 235.223 146.456 235.223 146.657H234.616C234.616 146.348 234.687 146.078 234.83 145.845C234.972 145.612 235.165 145.43 235.41 145.3C235.657 145.17 235.934 145.105 236.24 145.105C236.549 145.105 236.822 145.17 237.06 145.3C237.298 145.43 237.485 145.606 237.62 145.827C237.755 146.048 237.823 146.294 237.823 146.564C237.823 146.758 237.788 146.947 237.718 147.132C237.649 147.315 237.529 147.52 237.358 147.746C237.188 147.971 236.953 148.245 236.651 148.569L235.469 149.833V149.874H237.916V150.439H234.596ZM236.343 159.511C236.127 159.508 235.911 159.467 235.695 159.388C235.48 159.309 235.283 159.176 235.104 158.99C234.926 158.801 234.783 158.547 234.675 158.226C234.567 157.904 234.513 157.5 234.513 157.014C234.513 156.548 234.557 156.135 234.644 155.775C234.732 155.414 234.859 155.109 235.025 154.863C235.191 154.614 235.391 154.426 235.626 154.297C235.862 154.169 236.129 154.105 236.425 154.105C236.72 154.105 236.982 154.164 237.212 154.282C237.443 154.399 237.631 154.561 237.777 154.77C237.922 154.979 238.017 155.22 238.059 155.492H237.432C237.374 155.256 237.261 155.06 237.093 154.904C236.925 154.748 236.703 154.67 236.425 154.67C236.018 154.67 235.696 154.847 235.462 155.202C235.229 155.557 235.111 156.054 235.11 156.695H235.151C235.247 156.549 235.361 156.425 235.492 156.322C235.626 156.218 235.773 156.137 235.934 156.081C236.095 156.024 236.266 155.996 236.446 155.996C236.747 155.996 237.023 156.071 237.273 156.222C237.523 156.371 237.724 156.578 237.874 156.841C238.025 157.103 238.101 157.404 238.101 157.743C238.101 158.069 238.028 158.367 237.882 158.637C237.737 158.906 237.532 159.121 237.268 159.28C237.006 159.437 236.698 159.515 236.343 159.511ZM236.343 158.946C236.559 158.946 236.752 158.892 236.924 158.784C237.097 158.676 237.233 158.531 237.332 158.35C237.433 158.168 237.484 157.966 237.484 157.743C237.484 157.526 237.435 157.328 237.337 157.15C237.241 156.97 237.109 156.827 236.939 156.721C236.771 156.614 236.579 156.561 236.364 156.561C236.201 156.561 236.049 156.594 235.909 156.659C235.768 156.722 235.645 156.81 235.539 156.921C235.434 157.032 235.352 157.16 235.292 157.304C235.232 157.446 235.202 157.596 235.202 157.754C235.202 157.963 235.251 158.158 235.349 158.339C235.448 158.521 235.583 158.667 235.755 158.779C235.928 158.89 236.124 158.946 236.343 158.946Z" fill="#4D4D4D"/>
<path d="M31.219 232H5.0777C2.82735 232 1 230.177 1 227.932V193.176C1 190.931 2.82735 189.108 5.0777 189.108H31.219C33.4693 189.108 35.2967 190.931 35.2967 193.176V227.932C35.3136 230.177 33.4693 232 31.219 232Z" fill="#4D4D4D" stroke="#4D4D4D" stroke-width="0.9725" stroke-miterlimit="10"/>
<path d="M3.89563 197.468V197.005L5.63267 195.104C5.83652 194.881 6.0044 194.687 6.1363 194.523C6.26821 194.357 6.36585 194.201 6.42924 194.055C6.49433 193.908 6.52688 193.754 6.52688 193.593C6.52688 193.408 6.48234 193.247 6.39326 193.112C6.3059 192.977 6.18598 192.872 6.03352 192.799C5.88106 192.725 5.70975 192.688 5.5196 192.688C5.31746 192.688 5.14102 192.73 4.99027 192.814C4.84123 192.896 4.7256 193.012 4.64338 193.161C4.56286 193.31 4.52261 193.485 4.52261 193.685H3.91618C3.91618 193.377 3.98728 193.106 4.12946 192.873C4.27164 192.64 4.46522 192.459 4.71019 192.328C4.95687 192.198 5.23352 192.133 5.54016 192.133C5.84851 192.133 6.12174 192.198 6.35986 192.328C6.59797 192.459 6.78469 192.634 6.92003 192.855C7.05536 193.076 7.12302 193.322 7.12302 193.593C7.12302 193.786 7.08791 193.975 7.01767 194.16C6.94915 194.344 6.82923 194.548 6.65793 194.775C6.48834 194.999 6.25279 195.273 5.95129 195.597L4.76929 196.861V196.902H7.21553V197.468H3.89563ZM4.06008 206.468L6.41382 201.811V201.77H3.70034V201.205H7.07163V201.801L4.72817 206.468H4.06008Z" fill="white"/>
<path d="M69.678 232H43.5367C41.2863 232 39.459 230.177 39.459 227.932V193.176C39.459 190.931 41.2863 189.108 43.5367 189.108H69.678C71.9283 189.108 73.7557 190.931 73.7557 193.176V227.932C73.7557 230.177 71.9283 232 69.678 232Z" fill="white" stroke="#4D4D4D" stroke-width="0.9725" stroke-miterlimit="10"/>
<path d="M42.3456 197.468V197.005L44.0826 195.104C44.2865 194.881 44.4543 194.687 44.5863 194.523C44.7182 194.357 44.8158 194.201 44.8792 194.055C44.9443 193.908 44.9768 193.754 44.9768 193.593C44.9768 193.408 44.9323 193.247 44.8432 193.112C44.7558 192.977 44.6359 192.872 44.4835 192.799C44.331 192.725 44.1597 192.688 43.9696 192.688C43.7674 192.688 43.591 192.73 43.4402 192.814C43.2912 192.896 43.1756 193.012 43.0933 193.161C43.0128 193.31 42.9726 193.485 42.9726 193.685H42.3661C42.3661 193.377 42.4372 193.106 42.5794 192.873C42.7216 192.64 42.9152 192.459 43.1601 192.328C43.4068 192.198 43.6835 192.133 43.9901 192.133C44.2985 192.133 44.5717 192.198 44.8098 192.328C45.0479 192.459 45.2346 192.634 45.37 192.855C45.5053 193.076 45.573 193.322 45.573 193.593C45.573 193.786 45.5379 193.975 45.4676 194.16C45.3991 194.344 45.2792 194.548 45.1079 194.775C44.9383 194.999 44.7027 195.273 44.4012 195.597L43.2192 196.861V196.902H45.6655V197.468H42.3456ZM44.0312 206.539C43.6783 206.539 43.3666 206.477 43.0959 206.352C42.8269 206.225 42.6171 206.051 42.4663 205.83C42.3156 205.608 42.2411 205.354 42.2428 205.07C42.2411 204.847 42.2848 204.641 42.3738 204.453C42.4629 204.263 42.5845 204.104 42.7387 203.978C42.8946 203.849 43.0685 203.768 43.2603 203.733V203.703C43.0085 203.638 42.8081 203.496 42.6591 203.279C42.51 203.059 42.4364 202.81 42.4381 202.531C42.4364 202.264 42.504 202.025 42.6411 201.814C42.7781 201.603 42.9666 201.437 43.2064 201.316C43.4479 201.194 43.7229 201.133 44.0312 201.133C44.3361 201.133 44.6085 201.194 44.8484 201.316C45.0882 201.437 45.2766 201.603 45.4137 201.814C45.5524 202.025 45.6227 202.264 45.6244 202.531C45.6227 202.81 45.5464 203.059 45.3957 203.279C45.2466 203.496 45.0488 203.638 44.8021 203.703V203.733C44.9922 203.768 45.1636 203.849 45.316 203.978C45.4685 204.104 45.5901 204.263 45.6809 204.453C45.7717 204.641 45.8179 204.847 45.8197 205.07C45.8179 205.354 45.7409 205.608 45.5884 205.83C45.4376 206.051 45.2278 206.225 44.9588 206.352C44.6916 206.477 44.3824 206.539 44.0312 206.539ZM44.0312 205.974C44.2693 205.974 44.4749 205.936 44.6479 205.859C44.8209 205.781 44.9546 205.673 45.0488 205.532C45.143 205.392 45.191 205.227 45.1927 205.039C45.191 204.84 45.1396 204.665 45.0385 204.512C44.9374 204.36 44.7995 204.24 44.6248 204.152C44.4518 204.065 44.2539 204.021 44.0312 204.021C43.8068 204.021 43.6064 204.065 43.4299 204.152C43.2552 204.24 43.1173 204.36 43.0162 204.512C42.9169 204.665 42.8681 204.84 42.8698 205.039C42.8681 205.227 42.9135 205.392 43.006 205.532C43.1002 205.673 43.2347 205.781 43.4094 205.859C43.5841 205.936 43.7914 205.974 44.0312 205.974ZM44.0312 203.477C44.2197 203.477 44.3867 203.439 44.5323 203.363C44.6796 203.288 44.7952 203.183 44.8792 203.047C44.9631 202.912 45.006 202.754 45.0077 202.572C45.006 202.394 44.964 202.239 44.8818 202.107C44.7995 201.973 44.6856 201.871 44.54 201.799C44.3944 201.725 44.2248 201.688 44.0312 201.688C43.8342 201.688 43.6621 201.725 43.5147 201.799C43.3674 201.871 43.2535 201.973 43.173 202.107C43.0925 202.239 43.0531 202.394 43.0548 202.572C43.0531 202.754 43.0933 202.912 43.1756 203.047C43.2595 203.183 43.3751 203.288 43.5224 203.363C43.6698 203.439 43.8394 203.477 44.0312 203.477Z" fill="#4D4D4D"/>
<path d="M108.12 232H81.9788C79.7284 232 77.9011 230.177 77.9011 227.932V193.176C77.9011 190.931 79.7284 189.108 81.9788 189.108H108.12C110.37 189.108 112.198 190.931 112.198 193.176V227.932C112.198 230.177 110.37 232 108.12 232Z" fill="white" stroke="#4D4D4D" stroke-width="0.9725" stroke-miterlimit="10"/>
<path d="M80.7954 197.468V197.005L82.5325 195.104C82.7363 194.881 82.9042 194.687 83.0361 194.523C83.168 194.357 83.2657 194.201 83.3291 194.055C83.3942 193.908 83.4267 193.754 83.4267 193.593C83.4267 193.408 83.3822 193.247 83.2931 193.112C83.2057 192.977 83.0858 192.872 82.9333 192.799C82.7809 192.725 82.6096 192.688 82.4194 192.688C82.2173 192.688 82.0408 192.73 81.8901 192.814C81.7411 192.896 81.6254 193.012 81.5432 193.161C81.4627 193.31 81.4224 193.485 81.4224 193.685H80.816C80.816 193.377 80.8871 193.106 81.0293 192.873C81.1715 192.64 81.365 192.459 81.61 192.328C81.8567 192.198 82.1333 192.133 82.44 192.133C82.7483 192.133 83.0216 192.198 83.2597 192.328C83.4978 192.459 83.6845 192.634 83.8198 192.855C83.9552 193.076 84.0228 193.322 84.0228 193.593C84.0228 193.786 83.9877 193.975 83.9175 194.16C83.849 194.344 83.7291 194.548 83.5577 194.775C83.3882 194.999 83.1526 195.273 82.8511 195.597L81.6691 196.861V196.902H84.1153V197.468H80.7954ZM82.4708 201.133C82.6867 201.135 82.9025 201.176 83.1183 201.256C83.3342 201.337 83.5312 201.471 83.7094 201.657C83.8875 201.842 84.0306 202.095 84.1385 202.415C84.2464 202.736 84.3004 203.137 84.3004 203.62C84.3004 204.088 84.2558 204.504 84.1667 204.867C84.0794 205.228 83.9526 205.533 83.7864 205.781C83.622 206.03 83.4216 206.218 83.1852 206.347C82.9505 206.475 82.6849 206.539 82.3886 206.539C82.0939 206.539 81.831 206.481 81.5997 206.365C81.3702 206.247 81.1817 206.083 81.0344 205.874C80.8888 205.663 80.7954 205.419 80.7543 205.142H81.3813C81.4378 205.383 81.55 205.583 81.7179 205.74C81.8875 205.896 82.1111 205.974 82.3886 205.974C82.7946 205.974 83.1149 205.797 83.3496 205.442C83.586 205.088 83.7042 204.587 83.7042 203.939H83.6631C83.5672 204.083 83.4533 204.207 83.3213 204.312C83.1894 204.416 83.043 204.497 82.8819 204.553C82.7209 204.61 82.5496 204.638 82.368 204.638C82.0665 204.638 81.7899 204.563 81.5381 204.414C81.2879 204.264 81.0875 204.057 80.9368 203.795C80.7877 203.531 80.7132 203.23 80.7132 202.891C80.7132 202.569 80.7852 202.274 80.9291 202.007C81.0747 201.738 81.2785 201.524 81.5406 201.364C81.8044 201.205 82.1145 201.128 82.4708 201.133ZM82.4708 201.698C82.255 201.698 82.0605 201.752 81.8875 201.86C81.7162 201.966 81.58 202.11 81.479 202.292C81.3796 202.472 81.3299 202.671 81.3299 202.891C81.3299 203.11 81.3779 203.31 81.4738 203.489C81.5715 203.668 81.7042 203.81 81.8721 203.916C82.0417 204.02 82.2344 204.073 82.4503 204.073C82.613 204.073 82.7646 204.041 82.9051 203.978C83.0455 203.913 83.168 203.824 83.2725 203.713C83.3787 203.6 83.4618 203.472 83.5218 203.33C83.5817 203.186 83.6117 203.036 83.6117 202.88C83.6117 202.675 83.562 202.482 83.4627 202.302C83.365 202.122 83.2297 201.977 83.0567 201.865C82.8854 201.754 82.6901 201.698 82.4708 201.698Z" fill="#4D4D4D"/>
<path d="M146.562 232H120.438C118.187 232 116.36 230.177 116.36 227.932V193.176C116.36 190.931 118.187 189.108 120.438 189.108H146.579C148.829 189.108 150.657 190.931 150.657 193.176V227.932C150.657 230.177 148.829 232 146.562 232Z" fill="white" stroke="#4D4D4D" stroke-width="0.9725" stroke-miterlimit="10"/>
<path d="M121.024 197.539C120.685 197.539 120.382 197.481 120.117 197.365C119.853 197.248 119.643 197.086 119.487 196.879C119.333 196.67 119.249 196.428 119.235 196.152H119.883C119.897 196.321 119.955 196.468 120.058 196.591C120.16 196.713 120.295 196.807 120.461 196.874C120.627 196.941 120.811 196.974 121.013 196.974C121.24 196.974 121.44 196.935 121.615 196.856C121.789 196.777 121.927 196.668 122.026 196.527C122.125 196.387 122.175 196.224 122.175 196.039C122.175 195.845 122.127 195.675 122.031 195.527C121.935 195.378 121.795 195.262 121.61 195.178C121.425 195.094 121.198 195.052 120.931 195.052H120.51V194.487H120.931C121.14 194.487 121.324 194.449 121.481 194.374C121.64 194.298 121.765 194.192 121.854 194.055C121.945 193.918 121.99 193.757 121.99 193.572C121.99 193.394 121.951 193.239 121.872 193.107C121.793 192.975 121.682 192.872 121.538 192.799C121.395 192.725 121.228 192.688 121.034 192.688C120.852 192.688 120.681 192.722 120.52 192.788C120.361 192.853 120.231 192.948 120.13 193.074C120.028 193.197 119.974 193.346 119.965 193.521H119.348C119.359 193.245 119.442 193.003 119.598 192.796C119.754 192.587 119.957 192.424 120.209 192.308C120.463 192.191 120.741 192.133 121.044 192.133C121.37 192.133 121.649 192.199 121.882 192.331C122.115 192.461 122.294 192.633 122.419 192.847C122.544 193.062 122.607 193.293 122.607 193.541C122.607 193.838 122.529 194.09 122.373 194.299C122.219 194.508 122.009 194.653 121.743 194.733V194.775C122.076 194.829 122.335 194.971 122.522 195.199C122.709 195.425 122.802 195.705 122.802 196.039C122.802 196.325 122.724 196.582 122.568 196.81C122.414 197.036 122.203 197.214 121.936 197.344C121.669 197.474 121.365 197.539 121.024 197.539ZM120.962 206.539C120.575 206.539 120.245 206.434 119.973 206.223C119.7 206.011 119.492 205.704 119.348 205.301C119.204 204.897 119.133 204.408 119.133 203.836C119.133 203.268 119.204 202.782 119.348 202.379C119.494 201.975 119.703 201.667 119.975 201.454C120.249 201.24 120.578 201.133 120.962 201.133C121.346 201.133 121.674 201.24 121.946 201.454C122.22 201.667 122.429 201.975 122.573 202.379C122.719 202.782 122.792 203.268 122.792 203.836C122.792 204.408 122.72 204.897 122.576 205.301C122.432 205.704 122.224 206.011 121.951 206.223C121.679 206.434 121.349 206.539 120.962 206.539ZM120.962 205.974C121.346 205.974 121.644 205.789 121.856 205.419C122.069 205.049 122.175 204.521 122.175 203.836C122.175 203.381 122.126 202.993 122.028 202.672C121.933 202.352 121.794 202.108 121.612 201.94C121.432 201.772 121.216 201.688 120.962 201.688C120.582 201.688 120.285 201.876 120.07 202.251C119.856 202.624 119.749 203.153 119.749 203.836C119.749 204.292 119.797 204.679 119.893 204.998C119.989 205.316 120.127 205.559 120.307 205.725C120.488 205.891 120.707 205.974 120.962 205.974Z" fill="#4D4D4D"/>
<path d="M185.021 232H158.88C156.63 232 154.802 230.177 154.802 227.932V193.176C154.802 190.931 156.63 189.108 158.88 189.108H185.021C187.272 189.108 189.099 190.931 189.099 193.176V227.932C189.099 230.177 187.272 232 185.021 232Z" fill="white" stroke="#4D4D4D" stroke-width="0.9725" stroke-miterlimit="10"/>
<path d="M159.474 197.539C159.135 197.539 158.832 197.481 158.567 197.365C158.303 197.248 158.093 197.086 157.937 196.879C157.783 196.67 157.699 196.428 157.685 196.152H158.333C158.347 196.321 158.405 196.468 158.508 196.591C158.61 196.713 158.745 196.807 158.911 196.874C159.077 196.941 159.261 196.974 159.464 196.974C159.69 196.974 159.89 196.935 160.065 196.856C160.24 196.777 160.377 196.668 160.476 196.527C160.575 196.387 160.625 196.224 160.625 196.039C160.625 195.845 160.577 195.675 160.481 195.527C160.385 195.378 160.245 195.262 160.06 195.178C159.875 195.094 159.649 195.052 159.381 195.052H158.96V194.487H159.381C159.59 194.487 159.774 194.449 159.931 194.374C160.09 194.298 160.215 194.192 160.304 194.055C160.395 193.918 160.44 193.757 160.44 193.572C160.44 193.394 160.401 193.239 160.322 193.107C160.243 192.975 160.132 192.872 159.988 192.799C159.846 192.725 159.678 192.688 159.484 192.688C159.302 192.688 159.131 192.722 158.97 192.788C158.811 192.853 158.681 192.948 158.58 193.074C158.479 193.197 158.424 193.346 158.415 193.521H157.798C157.809 193.245 157.892 193.003 158.048 192.796C158.204 192.587 158.407 192.424 158.659 192.308C158.913 192.191 159.191 192.133 159.494 192.133C159.82 192.133 160.099 192.199 160.332 192.331C160.565 192.461 160.744 192.633 160.869 192.847C160.994 193.062 161.057 193.293 161.057 193.541C161.057 193.838 160.979 194.09 160.823 194.299C160.669 194.508 160.459 194.653 160.193 194.733V194.775C160.526 194.829 160.785 194.971 160.972 195.199C161.159 195.425 161.252 195.705 161.252 196.039C161.252 196.325 161.174 196.582 161.018 196.81C160.864 197.036 160.653 197.214 160.386 197.344C160.119 197.474 159.815 197.539 159.474 197.539ZM159.546 201.205V206.468H158.908V201.873H158.878L157.593 202.726V202.079L158.908 201.205H159.546Z" fill="#4D4D4D"/>
<path d="M94.9225 166.861L73.7049 151.635C71.8776 150.319 71.4546 147.77 72.7743 145.947L93.1121 117.741C94.4318 115.918 96.9868 115.496 98.8141 116.812L120.032 132.038C121.859 133.355 122.282 135.903 120.962 137.726L100.625 165.933C99.3048 167.772 96.7499 168.178 94.9225 166.861Z" fill="#4D4D4D" stroke="#4D4D4D" stroke-width="0.9725" stroke-miterlimit="10"/>
<mask id="mask0_18_764" style="mask-type:luminance" maskUnits="userSpaceOnUse" x="72" y="116" width="50" height="52">
<path d="M94.9225 166.861L73.7049 151.635C71.8776 150.319 71.4546 147.77 72.7743 145.947L93.1121 117.741C94.4318 115.918 96.9868 115.496 98.8141 116.812L120.032 132.038C121.859 133.355 122.282 135.903 120.962 137.726L100.625 165.933C99.3048 167.772 96.7499 168.178 94.9225 166.861Z" fill="white"/>
</mask>
<g mask="url(#mask0_18_764)">
<path d="M111.352 148.513C118.697 148.513 124.651 142.573 124.651 135.245C124.651 127.918 118.697 121.978 111.352 121.978C104.007 121.978 98.0528 127.918 98.0528 135.245C98.0528 142.573 104.007 148.513 111.352 148.513Z" fill="white"/>
</g>
<path d="M94.9225 166.861L73.7049 151.635C71.8776 150.319 71.4546 147.77 72.7743 145.947L93.1121 117.741C94.4318 115.918 96.9868 115.496 98.8141 116.812L120.032 132.038C121.859 133.355 122.282 135.903 120.962 137.726L100.625 165.933C99.3048 167.772 96.7499 168.178 94.9225 166.861Z" stroke="#4D4D4D" stroke-width="0.9725" stroke-miterlimit="10"/>
<path d="M97.5462 119.732L94.4675 124L93.9499 123.628L96.6376 119.902L96.6126 119.884L95.0698 119.827L95.4486 119.302L97.0285 119.36L97.5462 119.732ZM88.9933 131.238C88.7484 131.062 88.5629 130.855 88.4368 130.617C88.3108 130.379 88.2497 130.132 88.2537 129.878C88.2577 129.624 88.3323 129.384 88.4775 129.159L88.9785 129.519C88.8586 129.726 88.8311 129.949 88.8957 130.187C88.9628 130.425 89.1056 130.622 89.324 130.779C89.4994 130.905 89.6848 130.976 89.8803 130.992C90.0772 131.009 90.2662 130.974 90.4474 130.887C90.6309 130.799 90.7883 130.664 90.9196 130.482C91.0539 130.296 91.1326 130.101 91.1557 129.896C91.1813 129.691 91.1536 129.495 91.0728 129.308C90.992 129.121 90.8609 128.962 90.6796 128.83C90.5498 128.734 90.401 128.658 90.2332 128.601C90.0663 128.542 89.9153 128.513 89.7802 128.513L89.338 128.107L91.1121 126.192L93.3331 127.786L93.0024 128.245L91.2156 126.962L90.1573 128.113L90.1824 128.131C90.3201 128.125 90.4717 128.146 90.6369 128.195C90.8022 128.244 90.9565 128.32 91.0999 128.423C91.3615 128.611 91.5495 128.84 91.6638 129.112C91.7806 129.384 91.8198 129.669 91.7813 129.969C91.7443 130.269 91.6261 130.557 91.4266 130.834C91.2302 131.106 90.9936 131.305 90.7168 131.431C90.4424 131.557 90.1541 131.605 89.852 131.576C89.5509 131.545 89.2647 131.433 88.9933 131.238Z" fill="white"/>
<path d="M148.846 145.272L130.099 140.259L111.352 135.245L116.377 153.948L121.402 172.651L130.59 160.194L139.845 169.41L145.598 163.671L136.343 154.438L148.846 145.272Z" fill="#4D4D4D" stroke="white" stroke-width="0.9725" stroke-miterlimit="10"/>
<path d="M29.1717 16.4956L28.1058 18.8925L29.1717 21.2726L26.7691 20.2092L24.3834 21.2726L25.4324 18.8925L24.3834 16.4956L26.7691 17.559L29.1717 16.4956Z" fill="#4D4D4D"/>
<path d="M256.88 75.3049L255.814 77.7019L256.88 80.0988L254.477 79.0354L252.075 80.0988L253.141 77.7019L252.075 75.3049L254.477 76.3684L256.88 75.3049Z" fill="#4D4D4D"/>
<path d="M244.393 200.384L243.327 202.781L244.393 205.178L241.991 204.114L239.588 205.178L240.654 202.781L239.588 200.384L241.991 201.447L244.393 200.384Z" fill="#4D4D4D"/>
<path d="M20.5425 165.139L19.4765 167.536L20.5425 169.933L18.1568 168.87L15.7542 169.933L16.8201 167.536L15.7542 165.139L18.1568 166.203L20.5425 165.139Z" fill="#4D4D4D"/>
<path d="M144.109 16.4451L143.043 18.842L144.109 21.2389L141.706 20.1755L139.32 21.2389L140.386 18.842L139.32 16.4451L141.706 17.5085L144.109 16.4451Z" fill="#4D4D4D"/>
<path d="M92.926 216.673L91.86 219.07L92.926 221.467L90.5403 220.404L88.1376 221.467L89.2036 219.07L88.1376 216.673L90.5403 217.737L92.926 216.673Z" fill="#4D4D4D"/>
</svg>
