<svg width="34" height="34" viewBox="0 0 34 34" fill="none" xmlns="http://www.w3.org/2000/svg">
<path fill-rule="evenodd" clip-rule="evenodd" d="M6.16348 0.5C2.75948 0.5 0 3.22104 0 6.57762V25.3853C0 28.7419 2.75949 31.463 6.16348 31.463H25.3487C28.7527 31.463 31.5122 28.7419 31.5122 25.3853V6.57763C31.5122 3.22105 28.7527 0.5 25.3487 0.5H6.16348ZM13.6269 7.83333C10.2229 7.83333 7.46341 10.5544 7.46341 13.911V18.052C7.46341 21.4086 10.2229 24.1296 13.6269 24.1296H17.8853C21.2893 24.1296 24.0488 21.4086 24.0488 18.052V13.911C24.0488 10.5544 21.2893 7.83333 17.8853 7.83333H13.6269Z" fill="url(#paint0_linear_28_261)"/>
<path d="M17.4146 23.2813C17.4146 19.9248 20.1741 17.2037 23.5781 17.2037H27.8365C31.2405 17.2037 34 19.9248 34 23.2813V27.4224C34 30.7789 31.2405 33.5 27.8365 33.5H23.5781C20.1741 33.5 17.4146 30.7789 17.4146 27.4224V23.2813Z" fill="url(#paint1_linear_28_261)"/>
<defs>
<linearGradient id="paint0_linear_28_261" x1="17" y1="0.5" x2="17" y2="33.5" gradientUnits="userSpaceOnUse">
<stop stop-color="#A675E9"/>
<stop offset="1" stop-color="#0AAEF8"/>
</linearGradient>
<linearGradient id="paint1_linear_28_261" x1="25.7073" y1="9.87039" x2="25.7073" y2="40.8334" gradientUnits="userSpaceOnUse">
<stop stop-color="#F8B453"/>
<stop offset="1" stop-color="#F8419D"/>
</linearGradient>
</defs>
</svg>
