<svg width="24" height="24" viewBox="0 0 24 24" fill="none" xmlns="http://www.w3.org/2000/svg">
<g clip-path="url(#clip0_11_904)">
<path d="M24 12C24 13.272 23.904 14.544 23.688 15.768C23.04 19.824 19.824 23.04 15.768 23.688C14.544 23.904 13.272 24 12 24C10.728 24 9.456 23.904 8.232 23.688C4.176 23.04 0.96 19.824 0.312 15.768C0.096 14.544 0 13.272 0 12C0 10.728 0.096 9.456 0.312 8.232C0.96 4.176 4.176 0.96 8.232 0.312C9.456 0.096 10.728 0 12 0C13.272 0 14.544 0.096 15.768 0.312C19.824 0.96 23.04 4.176 23.688 8.232C23.904 9.456 24 10.728 24 12Z" fill="url(#paint0_linear_11_904)"/>
<path d="M19.1281 19.488H7.03207C6.24007 19.488 5.47207 19.056 5.11207 18.36C4.68007 17.544 4.84807 16.56 5.49607 15.912L13.9201 7.48804H7.87207C6.21607 7.48804 4.87207 6.14404 4.87207 4.48804H16.0081C16.8001 4.48804 17.5681 4.92004 17.9281 5.61604C18.3601 6.43204 18.1921 7.41604 17.5441 8.06404L9.14407 16.512H16.1281C17.7841 16.512 19.1281 17.832 19.1281 19.488Z" fill="white"/>
</g>
<defs>
<linearGradient id="paint0_linear_11_904" x1="567.984" y1="2294.69" x2="1832.02" y2="105.312" gradientUnits="userSpaceOnUse">
<stop stop-color="#0845BF"/>
<stop offset="0.1911" stop-color="#0950DE"/>
<stop offset="0.3823" stop-color="#0B59F6"/>
<stop offset="0.5" stop-color="#0B5CFF"/>
<stop offset="0.6732" stop-color="#0E5EFE"/>
<stop offset="0.7774" stop-color="#1665FC"/>
<stop offset="0.8633" stop-color="#246FF9"/>
<stop offset="0.9388" stop-color="#387FF4"/>
<stop offset="1" stop-color="#4F90EE"/>
</linearGradient>
<clipPath id="clip0_11_904">
<rect width="24" height="24" fill="white"/>
</clipPath>
</defs>
</svg>
